M48
; DRILL file KiCad 10.0.4 date 2026-07-21T14:14:34
; FORMAT={-:-/ absolute / metric / decimal}
; #@! TF.CreationDate,2026-07-21T14:14:34-06:00
; #@! TF.GenerationSoftware,Kicad,Pcbnew,10.0.4
; #@! TF.FileFunction,Plated,1,2,PTH
FMAT,2
METRIC
; #@! TA.AperFunction,Plated,PTH,ViaDrill
T1C0.300
; #@! TA.AperFunction,Plated,PTH,ComponentDrill
T2C0.700
; #@! TA.AperFunction,Plated,PTH,ComponentDrill
T3C0.750
; #@! TA.AperFunction,Plated,PTH,ComponentDrill
T4C0.800
; #@! TA.AperFunction,Plated,PTH,ComponentDrill
T5C1.000
; #@! TA.AperFunction,Plated,PTH,ComponentDrill
T6C1.100
%
G90
G05
T1
X123.903Y-127.512
X124.61Y-121.725
X126.443Y-130.052
X140.978Y-123.702
X142.39Y-114.105
X142.99Y-96.325
X142.99Y-98.865
X142.99Y-101.405
X144.789Y-116.852
X144.93Y-121.725
X146.68Y-121.125
X152.55Y-126.805
T2
X129.54Y-65.845
X137.16Y-65.845
X141.12Y-65.845
X148.74Y-65.845
T3
X132.35Y-49.169
X134.35Y-49.169
T4
X119.57Y-47.065
X119.57Y-58.225
X122.07Y-47.065
X122.07Y-58.225
X127.15Y-162.365
X129.65Y-162.365
X144.97Y-47.145
X144.97Y-58.225
X147.47Y-47.145
X147.47Y-58.225
T5
X119.53Y-150.935
X119.53Y-153.475
X119.53Y-156.015
X119.53Y-158.555
X119.53Y-161.095
X119.53Y-163.635
X122.07Y-73.465
X122.07Y-76.005
X122.07Y-78.545
X122.07Y-81.085
X122.07Y-83.625
X122.07Y-86.165
X122.07Y-88.705
X122.07Y-91.245
X122.07Y-93.785
X122.07Y-96.325
X122.07Y-98.865
X122.07Y-101.405
X122.07Y-103.945
X122.07Y-106.485
X122.07Y-109.025
X122.07Y-116.645
X122.07Y-119.185
X122.07Y-121.725
X122.07Y-124.265
X122.07Y-126.805
X122.07Y-129.345
X129.69Y-126.805
X129.69Y-129.345
X129.69Y-131.885
X129.69Y-134.425
X129.69Y-136.965
X129.69Y-139.505
X129.69Y-142.045
X129.69Y-144.585
X134.77Y-119.185
X137.31Y-119.185
X139.85Y-119.185
X142.39Y-119.185
X144.07Y-73.465
X144.07Y-76.005
X144.07Y-78.545
X144.07Y-81.085
X144.07Y-83.625
X144.07Y-86.165
X144.07Y-88.705
X144.07Y-91.245
X144.07Y-93.785
X144.07Y-96.325
X144.07Y-98.865
X144.07Y-101.405
X144.07Y-103.945
X144.07Y-106.485
X144.07Y-109.025
X144.93Y-119.185
X144.93Y-126.805
X144.93Y-129.345
X144.93Y-131.885
X144.93Y-134.425
X144.93Y-136.965
X144.93Y-139.505
X144.93Y-142.045
X144.93Y-144.585
X147.47Y-119.185
X147.47Y-126.805
X147.47Y-129.345
X147.47Y-131.885
X147.47Y-134.425
X147.47Y-136.965
X147.47Y-139.505
X147.47Y-142.045
X147.47Y-144.585
T6
X130.81Y-57.095
X133.35Y-57.095
X135.89Y-57.095
M30
