%TF.GenerationSoftware,KiCad,Pcbnew,10.0.4*%
%TF.CreationDate,2026-07-21T14:13:26-06:00*%
%TF.ProjectId,ATLaS,41544c61-532e-46b6-9963-61645f706362,rev?*%
%TF.SameCoordinates,Original*%
%TF.FileFunction,Copper,L1,Top*%
%TF.FilePolarity,Positive*%
%FSLAX46Y46*%
G04 Gerber Fmt 4.6, Leading zero omitted, Abs format (unit mm)*
G04 Created by KiCad (PCBNEW 10.0.4) date 2026-07-21 14:13:26*
%MOMM*%
%LPD*%
G01*
G04 APERTURE LIST*
G04 Aperture macros list*
%AMRoundRect*
0 Rectangle with rounded corners*
0 $1 Rounding radius*
0 $2 $3 $4 $5 $6 $7 $8 $9 X,Y pos of 4 corners*
0 Add a 4 corners polygon primitive as box body*
4,1,4,$2,$3,$4,$5,$6,$7,$8,$9,$2,$3,0*
0 Add four circle primitives for the rounded corners*
1,1,$1+$1,$2,$3*
1,1,$1+$1,$4,$5*
1,1,$1+$1,$6,$7*
1,1,$1+$1,$8,$9*
0 Add four rect primitives between the rounded corners*
20,1,$1+$1,$2,$3,$4,$5,0*
20,1,$1+$1,$4,$5,$6,$7,0*
20,1,$1+$1,$6,$7,$8,$9,0*
20,1,$1+$1,$8,$9,$2,$3,0*%
G04 Aperture macros list end*
%TA.AperFunction,ComponentPad*%
%ADD10RoundRect,0.250000X-0.550000X-0.550000X0.550000X-0.550000X0.550000X0.550000X-0.550000X0.550000X0*%
%TD*%
%TA.AperFunction,ComponentPad*%
%ADD11C,1.600000*%
%TD*%
%TA.AperFunction,ComponentPad*%
%ADD12R,1.700000X1.700000*%
%TD*%
%TA.AperFunction,ComponentPad*%
%ADD13C,1.700000*%
%TD*%
%TA.AperFunction,ComponentPad*%
%ADD14C,1.400000*%
%TD*%
%TA.AperFunction,ComponentPad*%
%ADD15R,1.905000X2.000000*%
%TD*%
%TA.AperFunction,ComponentPad*%
%ADD16O,1.905000X2.000000*%
%TD*%
%TA.AperFunction,ComponentPad*%
%ADD17RoundRect,0.250000X0.350000X0.625000X-0.350000X0.625000X-0.350000X-0.625000X0.350000X-0.625000X0*%
%TD*%
%TA.AperFunction,ComponentPad*%
%ADD18O,1.200000X1.750000*%
%TD*%
%TA.AperFunction,ViaPad*%
%ADD19C,0.600000*%
%TD*%
%TA.AperFunction,Conductor*%
%ADD20C,0.200000*%
%TD*%
%ADD21RoundRect,0.250000X-0.550000X-0.550000X0.550000X-0.550000X0.550000X0.550000X-0.550000X0.550000X0*%
%ADD22C,1.600000*%
%ADD23R,1.700000X1.700000*%
%ADD24C,1.700000*%
%ADD25C,1.400000*%
%ADD26R,1.905000X2.000000*%
%ADD27O,1.905000X2.000000*%
%ADD28RoundRect,0.250000X0.350000X0.625000X-0.350000X0.625000X-0.350000X-0.625000X0.350000X-0.625000X0*%
%ADD29O,1.200000X1.750000*%
%ADD30C,0.050000*%
%TA.AperFunction,Profile*%
%ADD31C,0.050000*%
%TD*%
G04 APERTURE END LIST*
D10*
%TO.P,C1,1*%
%TO.N,VBAT*%
X119570000Y-47065000D03*
D11*
%TO.P,C1,2*%
%TO.N,GND*%
X122070000Y-47065000D03*
%TD*%
D10*
%TO.P,C4,1*%
%TO.N,+3.3V*%
X144970000Y-58225000D03*
D11*
%TO.P,C4,2*%
%TO.N,GND*%
X147470000Y-58225000D03*
%TD*%
D12*
%TO.P,J3,1,Pin_1_1*%
%TO.N,+3.3V*%
X129690000Y-126805000D03*
D13*
%TO.P,J3,2,Pin_2_2*%
%TO.N,GND*%
X129690000Y-129345000D03*
%TO.P,J3,3,Pin_3_3*%
%TO.N,SCL*%
X129690000Y-131885000D03*
%TO.P,J3,4,Pin_4_4*%
%TO.N,SDA*%
X129690000Y-134425000D03*
%TO.P,J3,5,Pin_5_5*%
%TO.N,unconnected-(J3-Pin_5-Pad5)*%
X129690000Y-136965000D03*
%TO.P,J3,6,Pin_6_6*%
%TO.N,unconnected-(J3-Pin_6-Pad6)*%
X129690000Y-139505000D03*
%TO.P,J3,7,Pin_7_7*%
%TO.N,GND*%
X129690000Y-142045000D03*
%TO.P,J3,8,Pin_8_8*%
%TO.N,IMU_INT*%
X129690000Y-144585000D03*
%TD*%
D14*
%TO.P,R1,1*%
%TO.N,SCL*%
X129540000Y-65845000D03*
%TO.P,R1,2*%
%TO.N,+3.3V*%
X137160000Y-65845000D03*
%TD*%
D12*
%TO.P,U2B1,1,Pin_1_1*%
%TO.N,GND*%
X144070000Y-73465000D03*
D13*
%TO.P,U2B1,2,Pin_2_2*%
%TO.N,SPI_MOSI*%
X144070000Y-76005000D03*
%TO.P,U2B1,3,Pin_3_3*%
%TO.N,SCL*%
X144070000Y-78545000D03*
%TO.P,U2B1,4,Pin_4_4*%
%TO.N,unconnected-(U2B1-Pin_4-Pad4)*%
X144070000Y-81085000D03*
%TO.P,U2B1,5,Pin_5_5*%
%TO.N,unconnected-(U2B1-Pin_5-Pad5)*%
X144070000Y-83625000D03*
%TO.P,U2B1,6,Pin_6_6*%
%TO.N,SDA*%
X144070000Y-86165000D03*
%TO.P,U2B1,7,Pin_7_7*%
%TO.N,GND*%
X144070000Y-88705000D03*
%TO.P,U2B1,8,Pin_8_8*%
%TO.N,SPI_MISO*%
X144070000Y-91245000D03*
%TO.P,U2B1,9,Pin_9_9*%
%TO.N,SPI_SCK*%
X144070000Y-93785000D03*
%TO.P,U2B1,10,Pin_10_10*%
%TO.N,SD_CS*%
X144070000Y-96325000D03*
%TO.P,U2B1,11,Pin_11_11*%
%TO.N,GPS_TX_LINE*%
X144070000Y-98865000D03*
%TO.P,U2B1,12,Pin_12_12*%
%TO.N,GPS_RX_LINE*%
X144070000Y-101405000D03*
%TO.P,U2B1,13,Pin_13_13*%
%TO.N,LORA_IRQ*%
X144070000Y-103945000D03*
%TO.P,U2B1,14,Pin_14_14*%
%TO.N,unconnected-(U2B1-Pin_14-Pad14)*%
X144070000Y-106485000D03*
%TO.P,U2B1,15,Pin_15_15*%
%TO.N,LORA_CS*%
X144070000Y-109025000D03*
%TD*%
D12*
%TO.P,U2A1,1,Pin_1_1*%
%TO.N,+3.3V*%
X122070000Y-73465000D03*
D13*
%TO.P,U2A1,2,Pin_2_2*%
%TO.N,unconnected-(U2A1-Pin_2-Pad2)*%
X122070000Y-76005000D03*
%TO.P,U2A1,3,Pin_3_3*%
%TO.N,unconnected-(U2A1-Pin_3-Pad3)*%
X122070000Y-78545000D03*
%TO.P,U2A1,4,Pin_4_4*%
%TO.N,unconnected-(U2A1-Pin_4-Pad4)*%
X122070000Y-81085000D03*
%TO.P,U2A1,5,Pin_5_5*%
%TO.N,IMU_INT*%
X122070000Y-83625000D03*
%TO.P,U2A1,6,Pin_6_6*%
%TO.N,unconnected-(U2A1-Pin_6-Pad6)*%
X122070000Y-86165000D03*
%TO.P,U2A1,7,Pin_7_7*%
%TO.N,unconnected-(U2A1-Pin_7-Pad7)*%
X122070000Y-88705000D03*
%TO.P,U2A1,8,Pin_8_8*%
%TO.N,unconnected-(U2A1-Pin_8-Pad8)*%
X122070000Y-91245000D03*
%TO.P,U2A1,9,Pin_9_9*%
%TO.N,unconnected-(U2A1-Pin_9-Pad9)*%
X122070000Y-93785000D03*
%TO.P,U2A1,10,Pin_10_10*%
%TO.N,unconnected-(U2A1-Pin_10-Pad10)*%
X122070000Y-96325000D03*
%TO.P,U2A1,11,Pin_11_11*%
%TO.N,LORA_RST*%
X122070000Y-98865000D03*
%TO.P,U2A1,12,Pin_12_12*%
%TO.N,unconnected-(U2A1-Pin_12-Pad12)*%
X122070000Y-101405000D03*
%TO.P,U2A1,13,Pin_13_13*%
%TO.N,unconnected-(U2A1-Pin_13-Pad13)*%
X122070000Y-103945000D03*
%TO.P,U2A1,14,Pin_14_14*%
%TO.N,GND*%
X122070000Y-106485000D03*
%TO.P,U2A1,15,Pin_15_15*%
%TO.N,unconnected-(U2A1-Pin_15-Pad15)*%
X122070000Y-109025000D03*
%TD*%
D12*
%TO.P,J5,1,Pin_1_1*%
%TO.N,+3.3V*%
X144930000Y-126805000D03*
D13*
%TO.P,J5,2,Pin_2_2*%
%TO.N,SPI_SCK*%
X147470000Y-126805000D03*
%TO.P,J5,3,Pin_3_3*%
%TO.N,SPI_MOSI*%
X144930000Y-129345000D03*
%TO.P,J5,4,Pin_4_4*%
%TO.N,SPI_MISO*%
X147470000Y-129345000D03*
%TO.P,J5,5,Pin_5_5*%
%TO.N,LORA_CS*%
X144930000Y-131885000D03*
%TO.P,J5,6,Pin_6_6*%
%TO.N,LORA_RST*%
X147470000Y-131885000D03*
%TO.P,J5,7,Pin_7_7*%
%TO.N,LORA_IRQ*%
X144930000Y-134425000D03*
%TO.P,J5,8,Pin_8_8*%
%TO.N,GND*%
X147470000Y-134425000D03*
%TO.P,J5,9,Pin_9_9*%
X144930000Y-136965000D03*
%TO.P,J5,10,Pin_10_10*%
%TO.N,unconnected-(J5-Pin_10-Pad10)*%
X147470000Y-136965000D03*
%TO.P,J5,11,Pin_11_11*%
%TO.N,unconnected-(J5-Pin_11-Pad11)*%
X144930000Y-139505000D03*
%TO.P,J5,12,Pin_12_12*%
%TO.N,unconnected-(J5-Pin_12-Pad12)*%
X147470000Y-139505000D03*
%TO.P,J5,13,Pin_13_13*%
%TO.N,unconnected-(J5-Pin_13-Pad13)*%
X144930000Y-142045000D03*
%TO.P,J5,14,Pin_14_14*%
%TO.N,unconnected-(J5-Pin_14-Pad14)*%
X147470000Y-142045000D03*
%TO.P,J5,15,Pin_15_15*%
%TO.N,unconnected-(J5-Pin_15-Pad15)*%
X144930000Y-144585000D03*
%TO.P,J5,16,Pin_16_16*%
%TO.N,unconnected-(J5-Pin_16-Pad16)*%
X147470000Y-144585000D03*
%TD*%
D10*
%TO.P,C3,1*%
%TO.N,+3.3V*%
X144970000Y-47145000D03*
D11*
%TO.P,C3,2*%
%TO.N,GND*%
X147470000Y-47145000D03*
%TD*%
D12*
%TO.P,J6,1,Pin_1_1*%
%TO.N,+5V*%
X147470000Y-119185000D03*
D13*
%TO.P,J6,2,Pin_2_2*%
%TO.N,GND*%
X144930000Y-119185000D03*
%TO.P,J6,3,Pin_3_3*%
%TO.N,SPI_MOSI*%
X142390000Y-119185000D03*
%TO.P,J6,4,Pin_4_4*%
%TO.N,SPI_MISO*%
X139850000Y-119185000D03*
%TO.P,J6,5,Pin_5_5*%
%TO.N,SPI_SCK*%
X137310000Y-119185000D03*
%TO.P,J6,6,Pin_6_6*%
%TO.N,SD_CS*%
X134770000Y-119185000D03*
%TD*%
D10*
%TO.P,C5,1*%
%TO.N,+3.3V*%
X127150000Y-162365000D03*
D11*
%TO.P,C5,2*%
%TO.N,GND*%
X129650000Y-162365000D03*
%TD*%
D14*
%TO.P,R2,1*%
%TO.N,SDA*%
X141120000Y-65845000D03*
%TO.P,R2,2*%
%TO.N,+3.3V*%
X148740000Y-65845000D03*
%TD*%
D12*
%TO.P,J2,1,Pin_1_1*%
%TO.N,+3.3V*%
X122070000Y-116645000D03*
D13*
%TO.P,J2,2,Pin_2_2*%
%TO.N,GND*%
X122070000Y-119185000D03*
%TO.P,J2,3,Pin_3_3*%
%TO.N,SCL*%
X122070000Y-121725000D03*
%TO.P,J2,4,Pin_4_4*%
%TO.N,SDA*%
X122070000Y-124265000D03*
%TO.P,J2,5,Pin_5_5*%
%TO.N,+3.3V*%
X122070000Y-126805000D03*
%TO.P,J2,6,Pin_6_6*%
%TO.N,GND*%
X122070000Y-129345000D03*
%TD*%
D15*
%TO.P,U1,1,GND_1*%
%TO.N,GND*%
X130810000Y-57095000D03*
D16*
%TO.P,U1,2,VO_2*%
%TO.N,+3.3V*%
X133350000Y-57095000D03*
%TO.P,U1,3,VI_3*%
%TO.N,VBAT*%
X135890000Y-57095000D03*
%TD*%
D12*
%TO.P,J4,1,Pin_1_1*%
%TO.N,+3.3V*%
X119530000Y-150935000D03*
D13*
%TO.P,J4,2,Pin_2_2*%
%TO.N,GND*%
X119530000Y-153475000D03*
%TO.P,J4,3,Pin_3_3*%
%TO.N,GPS_TX_LINE*%
X119530000Y-156015000D03*
%TO.P,J4,4,Pin_4_4*%
%TO.N,GPS_RX_LINE*%
X119530000Y-158555000D03*
%TO.P,J4,5*%
%TO.N,N/C*%
X119530000Y-161095000D03*
%TO.P,J4,6*%
X119530000Y-163635000D03*
%TD*%
D10*
%TO.P,C2,1*%
%TO.N,VBAT*%
X119570000Y-58225000D03*
D11*
%TO.P,C2,2*%
%TO.N,GND*%
X122070000Y-58225000D03*
%TD*%
D17*
%TO.P,J1,1,Pin_1_1*%
%TO.N,VBAT*%
X134350000Y-49169025D03*
D18*
%TO.P,J1,2,Pin_2_2*%
%TO.N,GND*%
X132350000Y-49169025D03*
%TD*%
D19*
%TO.N,GND*%
X124610000Y-121725000D03*
X123902892Y-127512108D03*
%TO.N,+3.3V*%
X126442892Y-130052108D03*
%TO.N,GPS_RX_LINE*%
X142990000Y-101405000D03*
%TO.N,GPS_TX_LINE*%
X142990000Y-98865000D03*
%TO.N,SPI_MOSI*%
X152550000Y-126805000D03*
%TO.N,SPI_SCK*%
X146680000Y-121125000D03*
X142390000Y-114105000D03*
%TO.N,SPI_MISO*%
X144930000Y-121725000D03*
X140978095Y-123701624D03*
%TO.N,LORA_CS*%
X144788578Y-116851546D03*
%TO.N,SD_CS*%
X142990000Y-96325000D03*
%TD*%
%TO.N,GND*%
D20*
X124610000Y-121725000D02*
X122070000Y-119185000D01*
X122070000Y-129345000D02*
X123902892Y-127512108D01*
%TO.N,VBAT*%
X119570000Y-48065000D02*
X119570000Y-48009365D01*
X132350000Y-53555000D02*
X135890000Y-57095000D01*
X128875975Y-43695000D02*
X134350000Y-49169025D01*
X132350000Y-53555000D02*
X132350000Y-53265000D01*
X123884365Y-43695000D02*
X128875975Y-43695000D01*
X119570000Y-47065000D02*
X119570000Y-48065000D01*
X119570000Y-48065000D02*
X119570000Y-58225000D01*
X132350000Y-53265000D02*
X132230000Y-53145000D01*
X119570000Y-48009365D02*
X123884365Y-43695000D01*
X132230000Y-53145000D02*
X134350000Y-51025000D01*
X134350000Y-51025000D02*
X134350000Y-49169025D01*
%TO.N,+3.3V*%
X134650000Y-58395000D02*
X144800000Y-58395000D01*
X144970000Y-49833802D02*
X144970000Y-47145000D01*
X133350000Y-57095000D02*
X133350000Y-62035000D01*
X133350000Y-57095000D02*
X133350000Y-118065000D01*
X144800000Y-58395000D02*
X144970000Y-58225000D01*
X137020000Y-60765000D02*
X143660000Y-60765000D01*
X129690000Y-116645000D02*
X122070000Y-116645000D01*
X141240000Y-118708654D02*
X141240000Y-123115000D01*
X120920000Y-129821346D02*
X121593654Y-130495000D01*
X133350000Y-57095000D02*
X133350000Y-110818654D01*
X129690000Y-121725000D02*
X129690000Y-126805000D01*
X126000000Y-130495000D02*
X126442892Y-130052108D01*
X133350000Y-112985000D02*
X129690000Y-116645000D01*
X119530000Y-70915000D02*
X119530000Y-126805000D01*
X133350000Y-57095000D02*
X134650000Y-58395000D01*
X127150000Y-162365000D02*
X127150000Y-158555000D01*
X133350000Y-118065000D02*
X129690000Y-121725000D01*
X120920000Y-127955000D02*
X120920000Y-129821346D01*
X133350000Y-57095000D02*
X119530000Y-70915000D01*
X133350000Y-62035000D02*
X137160000Y-65845000D01*
X122070000Y-68375000D02*
X122070000Y-73465000D01*
X133350000Y-57095000D02*
X122070000Y-68375000D01*
X136408802Y-58395000D02*
X144970000Y-49833802D01*
X134650000Y-58395000D02*
X136408802Y-58395000D01*
X141240000Y-123115000D02*
X144930000Y-126805000D01*
X143660000Y-60765000D02*
X148740000Y-65845000D01*
X133350000Y-57095000D02*
X133350000Y-112985000D01*
X133350000Y-57095000D02*
X137020000Y-60765000D01*
X120920000Y-127955000D02*
X122070000Y-126805000D01*
X133350000Y-110818654D02*
X141240000Y-118708654D01*
X121593654Y-130495000D02*
X126000000Y-130495000D01*
X119530000Y-126805000D02*
X119530000Y-150935000D01*
X127150000Y-158555000D02*
X119530000Y-150935000D01*
%TO.N,SDA*%
X128140000Y-131961346D02*
X128140000Y-130335000D01*
X148620000Y-127281346D02*
X147946346Y-127955000D01*
X122070000Y-124265000D02*
X128140000Y-130335000D01*
X144070000Y-86165000D02*
X141120000Y-83215000D01*
X147946346Y-127955000D02*
X146993654Y-127955000D01*
X130166346Y-133035000D02*
X129213654Y-133035000D01*
X148620000Y-73345000D02*
X148620000Y-127281346D01*
X146993654Y-127955000D02*
X146080000Y-128868654D01*
X146080000Y-129821346D02*
X145406346Y-130495000D01*
X141120000Y-83215000D02*
X141120000Y-65845000D01*
X141120000Y-65845000D02*
X148620000Y-73345000D01*
X146080000Y-128868654D02*
X146080000Y-129821346D01*
X132706346Y-130495000D02*
X130166346Y-133035000D01*
X129213654Y-133035000D02*
X128140000Y-131961346D01*
X128140000Y-130335000D02*
X128140000Y-132875000D01*
X128140000Y-132875000D02*
X129690000Y-134425000D01*
X145406346Y-130495000D02*
X132706346Y-130495000D01*
%TO.N,SCL*%
X129540000Y-106875000D02*
X120920000Y-115495000D01*
X120920000Y-115495000D02*
X120920000Y-120575000D01*
X120920000Y-120575000D02*
X122070000Y-121725000D01*
X129540000Y-65845000D02*
X129540000Y-106875000D01*
X122070000Y-121725000D02*
X128540000Y-128195000D01*
X146080000Y-127955000D02*
X128540000Y-127955000D01*
X128540000Y-127955000D02*
X120920000Y-120335000D01*
X146080000Y-80555000D02*
X146080000Y-127955000D01*
X128540000Y-130735000D02*
X129690000Y-131885000D01*
X120920000Y-120335000D02*
X120920000Y-115495000D01*
X144070000Y-78545000D02*
X146080000Y-80555000D01*
X128540000Y-128195000D02*
X128540000Y-130735000D01*
%TO.N,IMU_INT*%
X122070000Y-83625000D02*
X120120000Y-85575000D01*
X120120000Y-135015000D02*
X129690000Y-144585000D01*
X120120000Y-85575000D02*
X120120000Y-135015000D01*
%TO.N,GPS_RX_LINE*%
X144070000Y-101405000D02*
X142990000Y-101405000D01*
%TO.N,GPS_TX_LINE*%
X144070000Y-98865000D02*
X142990000Y-98865000D01*
%TO.N,LORA_IRQ*%
X144930000Y-103945000D02*
X144070000Y-103945000D01*
%TO.N,SPI_MOSI*%
X140120000Y-83841346D02*
X140120000Y-65430786D01*
X143593654Y-85015000D02*
X144546346Y-85015000D01*
X152550000Y-75860786D02*
X152550000Y-126805000D01*
X141534214Y-64845000D02*
X152550000Y-75860786D01*
X141520000Y-78555000D02*
X141520000Y-82941346D01*
X140120000Y-65430786D02*
X140705786Y-64845000D01*
X145220000Y-86641346D02*
X144546346Y-87315000D01*
X144546346Y-85015000D02*
X145220000Y-85688654D01*
X144546346Y-87315000D02*
X143593654Y-87315000D01*
X143593654Y-87315000D02*
X140120000Y-83841346D01*
X145220000Y-85688654D02*
X145220000Y-86641346D01*
X140705786Y-64845000D02*
X141534214Y-64845000D01*
X144070000Y-76005000D02*
X141520000Y-78555000D01*
X141520000Y-82941346D02*
X143593654Y-85015000D01*
%TO.N,LORA_RST*%
X146320000Y-133035000D02*
X147470000Y-131885000D01*
X122070000Y-98865000D02*
X120520000Y-100415000D01*
X130166346Y-135575000D02*
X132706346Y-133035000D01*
X122654314Y-125415000D02*
X127740000Y-130500686D01*
X129213654Y-135575000D02*
X130166346Y-135575000D01*
X120520000Y-124341346D02*
X121593654Y-125415000D01*
X127740000Y-130500686D02*
X127740000Y-134101346D01*
X127740000Y-134101346D02*
X129213654Y-135575000D01*
X120520000Y-100415000D02*
X120520000Y-124341346D01*
X121593654Y-125415000D02*
X122654314Y-125415000D01*
X132706346Y-133035000D02*
X146320000Y-133035000D01*
%TO.N,SPI_SCK*%
X142390000Y-95465000D02*
X142390000Y-114105000D01*
X144070000Y-93785000D02*
X142390000Y-95465000D01*
X147470000Y-126805000D02*
X147470000Y-121915000D01*
X147470000Y-121915000D02*
X146680000Y-121125000D01*
%TO.N,SPI_MISO*%
X139850000Y-122573529D02*
X140978095Y-123701624D01*
X144070000Y-91245000D02*
X145480000Y-92655000D01*
X139850000Y-119185000D02*
X139850000Y-122573529D01*
X143780000Y-120575000D02*
X144930000Y-121725000D01*
X145480000Y-92655000D02*
X145480000Y-117008654D01*
X145480000Y-117008654D02*
X143780000Y-118708654D01*
X143780000Y-118708654D02*
X143780000Y-120575000D01*
%TO.N,LORA_CS*%
X144070000Y-116132968D02*
X144788578Y-116851546D01*
X144070000Y-109025000D02*
X144070000Y-116132968D01*
%TO.N,SD_CS*%
X144070000Y-96325000D02*
X142990000Y-96325000D01*
%TD*%
D21*
%TO.C,C1*%
X119570000Y-47065000D03*
D22*
X122070000Y-47065000D03*
%TD*%
D21*
%TO.C,C4*%
X144970000Y-58225000D03*
D22*
X147470000Y-58225000D03*
%TD*%
D23*
%TO.C,J3*%
X129690000Y-126805000D03*
D24*
X129690000Y-129345000D03*
X129690000Y-131885000D03*
X129690000Y-134425000D03*
X129690000Y-136965000D03*
X129690000Y-139505000D03*
X129690000Y-142045000D03*
X129690000Y-144585000D03*
%TD*%
D25*
%TO.C,R1*%
X129540000Y-65845000D03*
X137160000Y-65845000D03*
%TD*%
D23*
%TO.C,U2B1*%
X144070000Y-73465000D03*
D24*
X144070000Y-76005000D03*
X144070000Y-78545000D03*
X144070000Y-81085000D03*
X144070000Y-83625000D03*
X144070000Y-86165000D03*
X144070000Y-88705000D03*
X144070000Y-91245000D03*
X144070000Y-93785000D03*
X144070000Y-96325000D03*
X144070000Y-98865000D03*
X144070000Y-101405000D03*
X144070000Y-103945000D03*
X144070000Y-106485000D03*
X144070000Y-109025000D03*
%TD*%
D23*
%TO.C,U2A1*%
X122070000Y-73465000D03*
D24*
X122070000Y-76005000D03*
X122070000Y-78545000D03*
X122070000Y-81085000D03*
X122070000Y-83625000D03*
X122070000Y-86165000D03*
X122070000Y-88705000D03*
X122070000Y-91245000D03*
X122070000Y-93785000D03*
X122070000Y-96325000D03*
X122070000Y-98865000D03*
X122070000Y-101405000D03*
X122070000Y-103945000D03*
X122070000Y-106485000D03*
X122070000Y-109025000D03*
%TD*%
D23*
%TO.C,J5*%
X144930000Y-126805000D03*
D24*
X147470000Y-126805000D03*
X144930000Y-129345000D03*
X147470000Y-129345000D03*
X144930000Y-131885000D03*
X147470000Y-131885000D03*
X144930000Y-134425000D03*
X147470000Y-134425000D03*
X144930000Y-136965000D03*
X147470000Y-136965000D03*
X144930000Y-139505000D03*
X147470000Y-139505000D03*
X144930000Y-142045000D03*
X147470000Y-142045000D03*
X144930000Y-144585000D03*
X147470000Y-144585000D03*
%TD*%
D21*
%TO.C,C3*%
X144970000Y-47145000D03*
D22*
X147470000Y-47145000D03*
%TD*%
D23*
%TO.C,J6*%
X147470000Y-119185000D03*
D24*
X144930000Y-119185000D03*
X142390000Y-119185000D03*
X139850000Y-119185000D03*
X137310000Y-119185000D03*
X134770000Y-119185000D03*
%TD*%
D21*
%TO.C,C5*%
X127150000Y-162365000D03*
D22*
X129650000Y-162365000D03*
%TD*%
D25*
%TO.C,R2*%
X141120000Y-65845000D03*
X148740000Y-65845000D03*
%TD*%
D23*
%TO.C,J2*%
X122070000Y-116645000D03*
D24*
X122070000Y-119185000D03*
X122070000Y-121725000D03*
X122070000Y-124265000D03*
X122070000Y-126805000D03*
X122070000Y-129345000D03*
%TD*%
D26*
%TO.C,U1*%
X130810000Y-57095000D03*
D27*
X133350000Y-57095000D03*
X135890000Y-57095000D03*
%TD*%
D23*
%TO.C,J4*%
X119530000Y-150935000D03*
D24*
X119530000Y-153475000D03*
X119530000Y-156015000D03*
X119530000Y-158555000D03*
X119530000Y-161095000D03*
X119530000Y-163635000D03*
%TD*%
D21*
%TO.C,C2*%
X119570000Y-58225000D03*
D22*
X122070000Y-58225000D03*
%TD*%
D28*
%TO.C,J1*%
X134350000Y-49169025D03*
D29*
X132350000Y-49169025D03*
%TD*%
%TO.C,C1*%
D30*
X123570000Y-47065000D02*
G75*
G02*
X118070000Y-47065000I-2750000J0D01*
G01*
X118070000Y-47065000D02*
G75*
G02*
X123570000Y-47065000I2750000J0D01*
G01*
%TO.C,C4*%
X148970000Y-58225000D02*
G75*
G02*
X143470000Y-58225000I-2750000J0D01*
G01*
X143470000Y-58225000D02*
G75*
G02*
X148970000Y-58225000I2750000J0D01*
G01*
%TO.C,J3*%
X127920000Y-125035000D02*
X131460000Y-125035000D01*
X131460000Y-146355000D01*
X127920000Y-146355000D01*
X127920000Y-125035000D01*
%TO.C,R1*%
X128590000Y-64795000D02*
X138110000Y-64795000D01*
X138110000Y-66895000D01*
X128590000Y-66895000D01*
X128590000Y-64795000D01*
%TO.C,U2B1*%
X142300000Y-71685000D02*
X145840000Y-71685000D01*
X145840000Y-110805000D01*
X142300000Y-110805000D01*
X142300000Y-71685000D01*
%TO.C,U2A1*%
X120300000Y-71685000D02*
X123840000Y-71685000D01*
X123840000Y-110805000D01*
X120300000Y-110805000D01*
X120300000Y-71685000D01*
%TO.C,J5*%
X143160000Y-125035000D02*
X149250000Y-125035000D01*
X149250000Y-146355000D01*
X143160000Y-146355000D01*
X143160000Y-125035000D01*
%TO.C,C3*%
X148970000Y-47145000D02*
G75*
G02*
X143470000Y-47145000I-2750000J0D01*
G01*
X143470000Y-47145000D02*
G75*
G02*
X148970000Y-47145000I2750000J0D01*
G01*
%TO.C,J6*%
X133000000Y-117415000D02*
X149240000Y-117415000D01*
X149240000Y-120955000D01*
X133000000Y-120955000D01*
X133000000Y-117415000D01*
%TO.C,C5*%
X131150000Y-162365000D02*
G75*
G02*
X125650000Y-162365000I-2750000J0D01*
G01*
X125650000Y-162365000D02*
G75*
G02*
X131150000Y-162365000I2750000J0D01*
G01*
%TO.C,R2*%
X140170000Y-64795000D02*
X149690000Y-64795000D01*
X149690000Y-66895000D01*
X140170000Y-66895000D01*
X140170000Y-64795000D01*
%TO.C,J2*%
X120300000Y-114875000D02*
X123840000Y-114875000D01*
X123840000Y-131115000D01*
X120300000Y-131115000D01*
X120300000Y-114875000D01*
%TO.C,U1*%
X128100000Y-53695000D02*
X138600000Y-53695000D01*
X138600000Y-58595000D01*
X128100000Y-58595000D01*
X128100000Y-53695000D01*
%TO.C,J4*%
X117760000Y-149165000D02*
X121300000Y-149165000D01*
X121300000Y-165405000D01*
X117760000Y-165405000D01*
X117760000Y-149165000D01*
%TO.C,C2*%
X123570000Y-58225000D02*
G75*
G02*
X118070000Y-58225000I-2750000J0D01*
G01*
X118070000Y-58225000D02*
G75*
G02*
X123570000Y-58225000I2750000J0D01*
G01*
%TO.C,J1*%
X129900000Y-42419025D02*
X136800000Y-42419025D01*
X136800000Y-51019025D01*
X129900000Y-51019025D01*
X129900000Y-42419025D01*
%TD*%
D31*
X113350000Y-39645000D02*
X153350000Y-39645000D01*
X153350000Y-169645000D01*
X113350000Y-169645000D01*
X113350000Y-39645000D01*
M02*
