%TF.GenerationSoftware,KiCad,Pcbnew,10.0.4*%
%TF.CreationDate,2026-07-21T14:13:26-06:00*%
%TF.ProjectId,ATLaS,41544c61-532e-46b6-9963-61645f706362,rev?*%
%TF.SameCoordinates,Original*%
%TF.FileFunction,Other,User*%
%FSLAX46Y46*%
G04 Gerber Fmt 4.6, Leading zero omitted, Abs format (unit mm)*
G04 Created by KiCad (PCBNEW 10.0.4) date 2026-07-21 14:13:26*
%MOMM*%
%LPD*%
G01*
G04 APERTURE LIST*
G04 Aperture macros list*
%AMRoundRect*
0 Rectangle with rounded corners*
0 $1 Rounding radius*
0 $2 $3 $4 $5 $6 $7 $8 $9 X,Y pos of 4 corners*
0 Add a 4 corners polygon primitive as box body*
4,1,4,$2,$3,$4,$5,$6,$7,$8,$9,$2,$3,0*
0 Add four circle primitives for the rounded corners*
1,1,$1+$1,$2,$3*
1,1,$1+$1,$4,$5*
1,1,$1+$1,$6,$7*
1,1,$1+$1,$8,$9*
0 Add four rect primitives between the rounded corners*
20,1,$1+$1,$2,$3,$4,$5,0*
20,1,$1+$1,$4,$5,$6,$7,0*
20,1,$1+$1,$6,$7,$8,$9,0*
20,1,$1+$1,$8,$9,$2,$3,0*%
G04 Aperture macros list end*
%ADD10C,0.050000*%
%ADD11RoundRect,0.250000X-0.550000X-0.550000X0.550000X-0.550000X0.550000X0.550000X-0.550000X0.550000X0*%
%ADD12C,1.600000*%
%ADD13R,1.700000X1.700000*%
%ADD14C,1.700000*%
%ADD15C,1.400000*%
%ADD16R,1.905000X2.000000*%
%ADD17O,1.905000X2.000000*%
%ADD18RoundRect,0.250000X0.350000X0.625000X-0.350000X0.625000X-0.350000X-0.625000X0.350000X-0.625000X0*%
%ADD19O,1.200000X1.750000*%
%TA.AperFunction,Profile*%
%ADD20C,0.050000*%
%TD*%
G04 APERTURE END LIST*
%TO.C,C1*%
D10*
X123570000Y-47065000D02*
G75*
G02*
X118070000Y-47065000I-2750000J0D01*
G01*
X118070000Y-47065000D02*
G75*
G02*
X123570000Y-47065000I2750000J0D01*
G01*
%TO.C,C4*%
X148970000Y-58225000D02*
G75*
G02*
X143470000Y-58225000I-2750000J0D01*
G01*
X143470000Y-58225000D02*
G75*
G02*
X148970000Y-58225000I2750000J0D01*
G01*
%TO.C,J3*%
X127920000Y-125035000D02*
X131460000Y-125035000D01*
X131460000Y-146355000D01*
X127920000Y-146355000D01*
X127920000Y-125035000D01*
%TO.C,R1*%
X128590000Y-64795000D02*
X138110000Y-64795000D01*
X138110000Y-66895000D01*
X128590000Y-66895000D01*
X128590000Y-64795000D01*
%TO.C,U2B1*%
X142300000Y-71685000D02*
X145840000Y-71685000D01*
X145840000Y-110805000D01*
X142300000Y-110805000D01*
X142300000Y-71685000D01*
%TO.C,U2A1*%
X120300000Y-71685000D02*
X123840000Y-71685000D01*
X123840000Y-110805000D01*
X120300000Y-110805000D01*
X120300000Y-71685000D01*
%TO.C,J5*%
X143160000Y-125035000D02*
X149250000Y-125035000D01*
X149250000Y-146355000D01*
X143160000Y-146355000D01*
X143160000Y-125035000D01*
%TO.C,C3*%
X148970000Y-47145000D02*
G75*
G02*
X143470000Y-47145000I-2750000J0D01*
G01*
X143470000Y-47145000D02*
G75*
G02*
X148970000Y-47145000I2750000J0D01*
G01*
%TO.C,J6*%
X133000000Y-117415000D02*
X149240000Y-117415000D01*
X149240000Y-120955000D01*
X133000000Y-120955000D01*
X133000000Y-117415000D01*
%TO.C,C5*%
X131150000Y-162365000D02*
G75*
G02*
X125650000Y-162365000I-2750000J0D01*
G01*
X125650000Y-162365000D02*
G75*
G02*
X131150000Y-162365000I2750000J0D01*
G01*
%TO.C,R2*%
X140170000Y-64795000D02*
X149690000Y-64795000D01*
X149690000Y-66895000D01*
X140170000Y-66895000D01*
X140170000Y-64795000D01*
%TO.C,J2*%
X120300000Y-114875000D02*
X123840000Y-114875000D01*
X123840000Y-131115000D01*
X120300000Y-131115000D01*
X120300000Y-114875000D01*
%TO.C,U1*%
X128100000Y-53695000D02*
X138600000Y-53695000D01*
X138600000Y-58595000D01*
X128100000Y-58595000D01*
X128100000Y-53695000D01*
%TO.C,J4*%
X117760000Y-149165000D02*
X121300000Y-149165000D01*
X121300000Y-165405000D01*
X117760000Y-165405000D01*
X117760000Y-149165000D01*
%TO.C,C2*%
X123570000Y-58225000D02*
G75*
G02*
X118070000Y-58225000I-2750000J0D01*
G01*
X118070000Y-58225000D02*
G75*
G02*
X123570000Y-58225000I2750000J0D01*
G01*
%TO.C,J1*%
X129900000Y-42419025D02*
X136800000Y-42419025D01*
X136800000Y-51019025D01*
X129900000Y-51019025D01*
X129900000Y-42419025D01*
%TD*%
D11*
%TO.C,C1*%
X119570000Y-47065000D03*
D12*
X122070000Y-47065000D03*
%TD*%
D11*
%TO.C,C4*%
X144970000Y-58225000D03*
D12*
X147470000Y-58225000D03*
%TD*%
D13*
%TO.C,J3*%
X129690000Y-126805000D03*
D14*
X129690000Y-129345000D03*
X129690000Y-131885000D03*
X129690000Y-134425000D03*
X129690000Y-136965000D03*
X129690000Y-139505000D03*
X129690000Y-142045000D03*
X129690000Y-144585000D03*
%TD*%
D15*
%TO.C,R1*%
X129540000Y-65845000D03*
X137160000Y-65845000D03*
%TD*%
D13*
%TO.C,U2B1*%
X144070000Y-73465000D03*
D14*
X144070000Y-76005000D03*
X144070000Y-78545000D03*
X144070000Y-81085000D03*
X144070000Y-83625000D03*
X144070000Y-86165000D03*
X144070000Y-88705000D03*
X144070000Y-91245000D03*
X144070000Y-93785000D03*
X144070000Y-96325000D03*
X144070000Y-98865000D03*
X144070000Y-101405000D03*
X144070000Y-103945000D03*
X144070000Y-106485000D03*
X144070000Y-109025000D03*
%TD*%
D13*
%TO.C,U2A1*%
X122070000Y-73465000D03*
D14*
X122070000Y-76005000D03*
X122070000Y-78545000D03*
X122070000Y-81085000D03*
X122070000Y-83625000D03*
X122070000Y-86165000D03*
X122070000Y-88705000D03*
X122070000Y-91245000D03*
X122070000Y-93785000D03*
X122070000Y-96325000D03*
X122070000Y-98865000D03*
X122070000Y-101405000D03*
X122070000Y-103945000D03*
X122070000Y-106485000D03*
X122070000Y-109025000D03*
%TD*%
D13*
%TO.C,J5*%
X144930000Y-126805000D03*
D14*
X147470000Y-126805000D03*
X144930000Y-129345000D03*
X147470000Y-129345000D03*
X144930000Y-131885000D03*
X147470000Y-131885000D03*
X144930000Y-134425000D03*
X147470000Y-134425000D03*
X144930000Y-136965000D03*
X147470000Y-136965000D03*
X144930000Y-139505000D03*
X147470000Y-139505000D03*
X144930000Y-142045000D03*
X147470000Y-142045000D03*
X144930000Y-144585000D03*
X147470000Y-144585000D03*
%TD*%
D11*
%TO.C,C3*%
X144970000Y-47145000D03*
D12*
X147470000Y-47145000D03*
%TD*%
D13*
%TO.C,J6*%
X147470000Y-119185000D03*
D14*
X144930000Y-119185000D03*
X142390000Y-119185000D03*
X139850000Y-119185000D03*
X137310000Y-119185000D03*
X134770000Y-119185000D03*
%TD*%
D11*
%TO.C,C5*%
X127150000Y-162365000D03*
D12*
X129650000Y-162365000D03*
%TD*%
D15*
%TO.C,R2*%
X141120000Y-65845000D03*
X148740000Y-65845000D03*
%TD*%
D13*
%TO.C,J2*%
X122070000Y-116645000D03*
D14*
X122070000Y-119185000D03*
X122070000Y-121725000D03*
X122070000Y-124265000D03*
X122070000Y-126805000D03*
X122070000Y-129345000D03*
%TD*%
D16*
%TO.C,U1*%
X130810000Y-57095000D03*
D17*
X133350000Y-57095000D03*
X135890000Y-57095000D03*
%TD*%
D13*
%TO.C,J4*%
X119530000Y-150935000D03*
D14*
X119530000Y-153475000D03*
X119530000Y-156015000D03*
X119530000Y-158555000D03*
X119530000Y-161095000D03*
X119530000Y-163635000D03*
%TD*%
D11*
%TO.C,C2*%
X119570000Y-58225000D03*
D12*
X122070000Y-58225000D03*
%TD*%
D18*
%TO.C,J1*%
X134350000Y-49169025D03*
D19*
X132350000Y-49169025D03*
%TD*%
D20*
X113350000Y-39645000D02*
X153350000Y-39645000D01*
X153350000Y-169645000D01*
X113350000Y-169645000D01*
X113350000Y-39645000D01*
M02*
