%TF.GenerationSoftware,KiCad,Pcbnew,10.0.4*%
%TF.CreationDate,2026-07-21T14:13:26-06:00*%
%TF.ProjectId,ATLaS,41544c61-532e-46b6-9963-61645f706362,rev?*%
%TF.SameCoordinates,Original*%
%TF.FileFunction,Copper,L2,Bot*%
%TF.FilePolarity,Positive*%
%FSLAX46Y46*%
G04 Gerber Fmt 4.6, Leading zero omitted, Abs format (unit mm)*
G04 Created by KiCad (PCBNEW 10.0.4) date 2026-07-21 14:13:26*
%MOMM*%
%LPD*%
G01*
G04 APERTURE LIST*
G04 Aperture macros list*
%AMRoundRect*
0 Rectangle with rounded corners*
0 $1 Rounding radius*
0 $2 $3 $4 $5 $6 $7 $8 $9 X,Y pos of 4 corners*
0 Add a 4 corners polygon primitive as box body*
4,1,4,$2,$3,$4,$5,$6,$7,$8,$9,$2,$3,0*
0 Add four circle primitives for the rounded corners*
1,1,$1+$1,$2,$3*
1,1,$1+$1,$4,$5*
1,1,$1+$1,$6,$7*
1,1,$1+$1,$8,$9*
0 Add four rect primitives between the rounded corners*
20,1,$1+$1,$2,$3,$4,$5,0*
20,1,$1+$1,$4,$5,$6,$7,0*
20,1,$1+$1,$6,$7,$8,$9,0*
20,1,$1+$1,$8,$9,$2,$3,0*%
G04 Aperture macros list end*
%TA.AperFunction,ComponentPad*%
%ADD10RoundRect,0.250000X-0.550000X-0.550000X0.550000X-0.550000X0.550000X0.550000X-0.550000X0.550000X0*%
%TD*%
%TA.AperFunction,ComponentPad*%
%ADD11C,1.600000*%
%TD*%
%TA.AperFunction,ComponentPad*%
%ADD12R,1.700000X1.700000*%
%TD*%
%TA.AperFunction,ComponentPad*%
%ADD13C,1.700000*%
%TD*%
%TA.AperFunction,ComponentPad*%
%ADD14C,1.400000*%
%TD*%
%TA.AperFunction,ComponentPad*%
%ADD15R,1.905000X2.000000*%
%TD*%
%TA.AperFunction,ComponentPad*%
%ADD16O,1.905000X2.000000*%
%TD*%
%TA.AperFunction,ComponentPad*%
%ADD17RoundRect,0.250000X0.350000X0.625000X-0.350000X0.625000X-0.350000X-0.625000X0.350000X-0.625000X0*%
%TD*%
%TA.AperFunction,ComponentPad*%
%ADD18O,1.200000X1.750000*%
%TD*%
%TA.AperFunction,ViaPad*%
%ADD19C,0.600000*%
%TD*%
%TA.AperFunction,Conductor*%
%ADD20C,0.200000*%
%TD*%
%ADD21RoundRect,0.250000X-0.550000X-0.550000X0.550000X-0.550000X0.550000X0.550000X-0.550000X0.550000X0*%
%ADD22C,1.600000*%
%ADD23R,1.700000X1.700000*%
%ADD24C,1.700000*%
%ADD25C,1.400000*%
%ADD26R,1.905000X2.000000*%
%ADD27O,1.905000X2.000000*%
%ADD28RoundRect,0.250000X0.350000X0.625000X-0.350000X0.625000X-0.350000X-0.625000X0.350000X-0.625000X0*%
%ADD29O,1.200000X1.750000*%
%ADD30C,0.050000*%
%TA.AperFunction,Profile*%
%ADD31C,0.050000*%
%TD*%
G04 APERTURE END LIST*
D10*
%TO.P,C1,1*%
%TO.N,VBAT*%
X119570000Y-47065000D03*
D11*
%TO.P,C1,2*%
%TO.N,GND*%
X122070000Y-47065000D03*
%TD*%
D10*
%TO.P,C4,1*%
%TO.N,+3.3V*%
X144970000Y-58225000D03*
D11*
%TO.P,C4,2*%
%TO.N,GND*%
X147470000Y-58225000D03*
%TD*%
D12*
%TO.P,J3,1,Pin_1_1*%
%TO.N,+3.3V*%
X129690000Y-126805000D03*
D13*
%TO.P,J3,2,Pin_2_2*%
%TO.N,GND*%
X129690000Y-129345000D03*
%TO.P,J3,3,Pin_3_3*%
%TO.N,SCL*%
X129690000Y-131885000D03*
%TO.P,J3,4,Pin_4_4*%
%TO.N,SDA*%
X129690000Y-134425000D03*
%TO.P,J3,5,Pin_5_5*%
%TO.N,unconnected-(J3-Pin_5-Pad5)*%
X129690000Y-136965000D03*
%TO.P,J3,6,Pin_6_6*%
%TO.N,unconnected-(J3-Pin_6-Pad6)*%
X129690000Y-139505000D03*
%TO.P,J3,7,Pin_7_7*%
%TO.N,GND*%
X129690000Y-142045000D03*
%TO.P,J3,8,Pin_8_8*%
%TO.N,IMU_INT*%
X129690000Y-144585000D03*
%TD*%
D14*
%TO.P,R1,1*%
%TO.N,SCL*%
X129540000Y-65845000D03*
%TO.P,R1,2*%
%TO.N,+3.3V*%
X137160000Y-65845000D03*
%TD*%
D12*
%TO.P,U2B1,1,Pin_1_1*%
%TO.N,GND*%
X144070000Y-73465000D03*
D13*
%TO.P,U2B1,2,Pin_2_2*%
%TO.N,SPI_MOSI*%
X144070000Y-76005000D03*
%TO.P,U2B1,3,Pin_3_3*%
%TO.N,SCL*%
X144070000Y-78545000D03*
%TO.P,U2B1,4,Pin_4_4*%
%TO.N,unconnected-(U2B1-Pin_4-Pad4)*%
X144070000Y-81085000D03*
%TO.P,U2B1,5,Pin_5_5*%
%TO.N,unconnected-(U2B1-Pin_5-Pad5)*%
X144070000Y-83625000D03*
%TO.P,U2B1,6,Pin_6_6*%
%TO.N,SDA*%
X144070000Y-86165000D03*
%TO.P,U2B1,7,Pin_7_7*%
%TO.N,GND*%
X144070000Y-88705000D03*
%TO.P,U2B1,8,Pin_8_8*%
%TO.N,SPI_MISO*%
X144070000Y-91245000D03*
%TO.P,U2B1,9,Pin_9_9*%
%TO.N,SPI_SCK*%
X144070000Y-93785000D03*
%TO.P,U2B1,10,Pin_10_10*%
%TO.N,SD_CS*%
X144070000Y-96325000D03*
%TO.P,U2B1,11,Pin_11_11*%
%TO.N,GPS_TX_LINE*%
X144070000Y-98865000D03*
%TO.P,U2B1,12,Pin_12_12*%
%TO.N,GPS_RX_LINE*%
X144070000Y-101405000D03*
%TO.P,U2B1,13,Pin_13_13*%
%TO.N,LORA_IRQ*%
X144070000Y-103945000D03*
%TO.P,U2B1,14,Pin_14_14*%
%TO.N,unconnected-(U2B1-Pin_14-Pad14)*%
X144070000Y-106485000D03*
%TO.P,U2B1,15,Pin_15_15*%
%TO.N,LORA_CS*%
X144070000Y-109025000D03*
%TD*%
D12*
%TO.P,U2A1,1,Pin_1_1*%
%TO.N,+3.3V*%
X122070000Y-73465000D03*
D13*
%TO.P,U2A1,2,Pin_2_2*%
%TO.N,unconnected-(U2A1-Pin_2-Pad2)*%
X122070000Y-76005000D03*
%TO.P,U2A1,3,Pin_3_3*%
%TO.N,unconnected-(U2A1-Pin_3-Pad3)*%
X122070000Y-78545000D03*
%TO.P,U2A1,4,Pin_4_4*%
%TO.N,unconnected-(U2A1-Pin_4-Pad4)*%
X122070000Y-81085000D03*
%TO.P,U2A1,5,Pin_5_5*%
%TO.N,IMU_INT*%
X122070000Y-83625000D03*
%TO.P,U2A1,6,Pin_6_6*%
%TO.N,unconnected-(U2A1-Pin_6-Pad6)*%
X122070000Y-86165000D03*
%TO.P,U2A1,7,Pin_7_7*%
%TO.N,unconnected-(U2A1-Pin_7-Pad7)*%
X122070000Y-88705000D03*
%TO.P,U2A1,8,Pin_8_8*%
%TO.N,unconnected-(U2A1-Pin_8-Pad8)*%
X122070000Y-91245000D03*
%TO.P,U2A1,9,Pin_9_9*%
%TO.N,unconnected-(U2A1-Pin_9-Pad9)*%
X122070000Y-93785000D03*
%TO.P,U2A1,10,Pin_10_10*%
%TO.N,unconnected-(U2A1-Pin_10-Pad10)*%
X122070000Y-96325000D03*
%TO.P,U2A1,11,Pin_11_11*%
%TO.N,LORA_RST*%
X122070000Y-98865000D03*
%TO.P,U2A1,12,Pin_12_12*%
%TO.N,unconnected-(U2A1-Pin_12-Pad12)*%
X122070000Y-101405000D03*
%TO.P,U2A1,13,Pin_13_13*%
%TO.N,unconnected-(U2A1-Pin_13-Pad13)*%
X122070000Y-103945000D03*
%TO.P,U2A1,14,Pin_14_14*%
%TO.N,GND*%
X122070000Y-106485000D03*
%TO.P,U2A1,15,Pin_15_15*%
%TO.N,unconnected-(U2A1-Pin_15-Pad15)*%
X122070000Y-109025000D03*
%TD*%
D12*
%TO.P,J5,1,Pin_1_1*%
%TO.N,+3.3V*%
X144930000Y-126805000D03*
D13*
%TO.P,J5,2,Pin_2_2*%
%TO.N,SPI_SCK*%
X147470000Y-126805000D03*
%TO.P,J5,3,Pin_3_3*%
%TO.N,SPI_MOSI*%
X144930000Y-129345000D03*
%TO.P,J5,4,Pin_4_4*%
%TO.N,SPI_MISO*%
X147470000Y-129345000D03*
%TO.P,J5,5,Pin_5_5*%
%TO.N,LORA_CS*%
X144930000Y-131885000D03*
%TO.P,J5,6,Pin_6_6*%
%TO.N,LORA_RST*%
X147470000Y-131885000D03*
%TO.P,J5,7,Pin_7_7*%
%TO.N,LORA_IRQ*%
X144930000Y-134425000D03*
%TO.P,J5,8,Pin_8_8*%
%TO.N,GND*%
X147470000Y-134425000D03*
%TO.P,J5,9,Pin_9_9*%
X144930000Y-136965000D03*
%TO.P,J5,10,Pin_10_10*%
%TO.N,unconnected-(J5-Pin_10-Pad10)*%
X147470000Y-136965000D03*
%TO.P,J5,11,Pin_11_11*%
%TO.N,unconnected-(J5-Pin_11-Pad11)*%
X144930000Y-139505000D03*
%TO.P,J5,12,Pin_12_12*%
%TO.N,unconnected-(J5-Pin_12-Pad12)*%
X147470000Y-139505000D03*
%TO.P,J5,13,Pin_13_13*%
%TO.N,unconnected-(J5-Pin_13-Pad13)*%
X144930000Y-142045000D03*
%TO.P,J5,14,Pin_14_14*%
%TO.N,unconnected-(J5-Pin_14-Pad14)*%
X147470000Y-142045000D03*
%TO.P,J5,15,Pin_15_15*%
%TO.N,unconnected-(J5-Pin_15-Pad15)*%
X144930000Y-144585000D03*
%TO.P,J5,16,Pin_16_16*%
%TO.N,unconnected-(J5-Pin_16-Pad16)*%
X147470000Y-144585000D03*
%TD*%
D10*
%TO.P,C3,1*%
%TO.N,+3.3V*%
X144970000Y-47145000D03*
D11*
%TO.P,C3,2*%
%TO.N,GND*%
X147470000Y-47145000D03*
%TD*%
D12*
%TO.P,J6,1,Pin_1_1*%
%TO.N,+5V*%
X147470000Y-119185000D03*
D13*
%TO.P,J6,2,Pin_2_2*%
%TO.N,GND*%
X144930000Y-119185000D03*
%TO.P,J6,3,Pin_3_3*%
%TO.N,SPI_MOSI*%
X142390000Y-119185000D03*
%TO.P,J6,4,Pin_4_4*%
%TO.N,SPI_MISO*%
X139850000Y-119185000D03*
%TO.P,J6,5,Pin_5_5*%
%TO.N,SPI_SCK*%
X137310000Y-119185000D03*
%TO.P,J6,6,Pin_6_6*%
%TO.N,SD_CS*%
X134770000Y-119185000D03*
%TD*%
D10*
%TO.P,C5,1*%
%TO.N,+3.3V*%
X127150000Y-162365000D03*
D11*
%TO.P,C5,2*%
%TO.N,GND*%
X129650000Y-162365000D03*
%TD*%
D14*
%TO.P,R2,1*%
%TO.N,SDA*%
X141120000Y-65845000D03*
%TO.P,R2,2*%
%TO.N,+3.3V*%
X148740000Y-65845000D03*
%TD*%
D12*
%TO.P,J2,1,Pin_1_1*%
%TO.N,+3.3V*%
X122070000Y-116645000D03*
D13*
%TO.P,J2,2,Pin_2_2*%
%TO.N,GND*%
X122070000Y-119185000D03*
%TO.P,J2,3,Pin_3_3*%
%TO.N,SCL*%
X122070000Y-121725000D03*
%TO.P,J2,4,Pin_4_4*%
%TO.N,SDA*%
X122070000Y-124265000D03*
%TO.P,J2,5,Pin_5_5*%
%TO.N,+3.3V*%
X122070000Y-126805000D03*
%TO.P,J2,6,Pin_6_6*%
%TO.N,GND*%
X122070000Y-129345000D03*
%TD*%
D15*
%TO.P,U1,1,GND_1*%
%TO.N,GND*%
X130810000Y-57095000D03*
D16*
%TO.P,U1,2,VO_2*%
%TO.N,+3.3V*%
X133350000Y-57095000D03*
%TO.P,U1,3,VI_3*%
%TO.N,VBAT*%
X135890000Y-57095000D03*
%TD*%
D12*
%TO.P,J4,1,Pin_1_1*%
%TO.N,+3.3V*%
X119530000Y-150935000D03*
D13*
%TO.P,J4,2,Pin_2_2*%
%TO.N,GND*%
X119530000Y-153475000D03*
%TO.P,J4,3,Pin_3_3*%
%TO.N,GPS_TX_LINE*%
X119530000Y-156015000D03*
%TO.P,J4,4,Pin_4_4*%
%TO.N,GPS_RX_LINE*%
X119530000Y-158555000D03*
%TO.P,J4,5*%
%TO.N,N/C*%
X119530000Y-161095000D03*
%TO.P,J4,6*%
X119530000Y-163635000D03*
%TD*%
D10*
%TO.P,C2,1*%
%TO.N,VBAT*%
X119570000Y-58225000D03*
D11*
%TO.P,C2,2*%
%TO.N,GND*%
X122070000Y-58225000D03*
%TD*%
D17*
%TO.P,J1,1,Pin_1_1*%
%TO.N,VBAT*%
X134350000Y-49169025D03*
D18*
%TO.P,J1,2,Pin_2_2*%
%TO.N,GND*%
X132350000Y-49169025D03*
%TD*%
D19*
%TO.N,GND*%
X124610000Y-121725000D03*
X123902892Y-127512108D03*
%TO.N,+3.3V*%
X126442892Y-130052108D03*
%TO.N,GPS_RX_LINE*%
X142990000Y-101405000D03*
%TO.N,GPS_TX_LINE*%
X142990000Y-98865000D03*
%TO.N,SPI_MOSI*%
X152550000Y-126805000D03*
%TO.N,SPI_SCK*%
X146680000Y-121125000D03*
X142390000Y-114105000D03*
%TO.N,SPI_MISO*%
X144930000Y-121725000D03*
X140978095Y-123701624D03*
%TO.N,LORA_CS*%
X144788578Y-116851546D03*
%TO.N,SD_CS*%
X142990000Y-96325000D03*
%TD*%
%TO.N,GND*%
D20*
X123902892Y-127512108D02*
X124610000Y-126805000D01*
X124610000Y-126805000D02*
X124610000Y-121725000D01*
%TO.N,+3.3V*%
X126442892Y-130052108D02*
X129690000Y-126805000D01*
%TO.N,GPS_RX_LINE*%
X145620000Y-93708654D02*
X144546346Y-92635000D01*
X142920000Y-104421346D02*
X143593654Y-105095000D01*
X123220000Y-113008654D02*
X123220000Y-154865000D01*
X143593654Y-92635000D02*
X123220000Y-113008654D01*
X142990000Y-101405000D02*
X142920000Y-101475000D01*
X142920000Y-101475000D02*
X142920000Y-104421346D01*
X144546346Y-92635000D02*
X143593654Y-92635000D01*
X144578529Y-105095000D02*
X145620000Y-104053529D01*
X143593654Y-105095000D02*
X144578529Y-105095000D01*
X145620000Y-104053529D02*
X145620000Y-93708654D01*
X123220000Y-154865000D02*
X119530000Y-158555000D01*
%TO.N,GPS_TX_LINE*%
X146020000Y-91568654D02*
X144546346Y-90095000D01*
X142990000Y-98865000D02*
X141197969Y-100657031D01*
X141197969Y-105239315D02*
X143593654Y-107635000D01*
X141197969Y-100657031D02*
X141197969Y-105239315D01*
X143593654Y-90095000D02*
X120920000Y-112768654D01*
X120920000Y-154625000D02*
X119530000Y-156015000D01*
X144546346Y-90095000D02*
X143593654Y-90095000D01*
X144546346Y-107635000D02*
X146020000Y-106161346D01*
X120920000Y-112768654D02*
X120920000Y-154625000D01*
X146020000Y-106161346D02*
X146020000Y-91568654D01*
X143593654Y-107635000D02*
X144546346Y-107635000D01*
%TO.N,LORA_IRQ*%
X143291471Y-95175000D02*
X144546346Y-95175000D01*
X145220000Y-103655000D02*
X144930000Y-103945000D01*
X145220000Y-95848654D02*
X145220000Y-103655000D01*
X133620000Y-123115000D02*
X133620000Y-104846471D01*
X144546346Y-95175000D02*
X145220000Y-95848654D01*
X133620000Y-104846471D02*
X143291471Y-95175000D01*
X144930000Y-134425000D02*
X133620000Y-123115000D01*
%TO.N,SPI_MOSI*%
X151160000Y-128195000D02*
X146080000Y-128195000D01*
X142390000Y-119185000D02*
X143730000Y-120525000D01*
X152550000Y-126805000D02*
X151160000Y-128195000D01*
X146080000Y-128195000D02*
X144930000Y-129345000D01*
X152550000Y-126146471D02*
X152550000Y-126805000D01*
X143730000Y-120525000D02*
X146928529Y-120525000D01*
X146928529Y-120525000D02*
X152550000Y-126146471D01*
%TO.N,SPI_SCK*%
X141240000Y-119661346D02*
X142703654Y-121125000D01*
X142390000Y-114105000D02*
X141240000Y-115255000D01*
X141240000Y-115255000D02*
X141240000Y-119661346D01*
X139250000Y-121125000D02*
X137310000Y-119185000D01*
X145178529Y-121125000D02*
X147470000Y-123416471D01*
X142703654Y-121125000D02*
X145178529Y-121125000D01*
X146680000Y-121125000D02*
X139250000Y-121125000D01*
X147470000Y-123416471D02*
X147470000Y-126805000D01*
%TO.N,SPI_MISO*%
X146320000Y-130495000D02*
X147470000Y-129345000D01*
X143780000Y-129821346D02*
X144453654Y-130495000D01*
X142954719Y-121725000D02*
X144930000Y-121725000D01*
X143780000Y-122875000D02*
X143780000Y-129821346D01*
X144453654Y-130495000D02*
X146320000Y-130495000D01*
X140978095Y-123701624D02*
X142954719Y-121725000D01*
X144930000Y-121725000D02*
X143780000Y-122875000D01*
%TO.N,LORA_CS*%
X136160000Y-123115000D02*
X144930000Y-131885000D01*
X144788578Y-116851546D02*
X144788578Y-115655049D01*
X141363654Y-113505000D02*
X136160000Y-118708654D01*
X144788578Y-115655049D02*
X142638529Y-113505000D01*
X142638529Y-113505000D02*
X141363654Y-113505000D01*
X136160000Y-118708654D02*
X136160000Y-123115000D01*
%TO.N,SD_CS*%
X139850000Y-114105000D02*
X134770000Y-119185000D01*
X139850000Y-99465000D02*
X139850000Y-114105000D01*
X142990000Y-96325000D02*
X139850000Y-99465000D01*
%TD*%
%TA.AperFunction,Conductor*%
%TO.N,GND*%
G36*
X152792539Y-40165185D02*
G01*
X152838294Y-40217989D01*
X152849500Y-40269500D01*
X152849500Y-125297373D01*
X152829815Y-125364412D01*
X152777011Y-125410167D01*
X152707853Y-125420111D01*
X152644297Y-125391086D01*
X152637819Y-125385054D01*
X147999944Y-120747180D01*
X147966459Y-120685857D01*
X147971443Y-120616165D01*
X148013315Y-120560232D01*
X148078779Y-120535815D01*
X148087625Y-120535499D01*
X148367871Y-120535499D01*
X148367872Y-120535499D01*
X148427483Y-120529091D01*
X148562331Y-120478796D01*
X148677546Y-120392546D01*
X148763796Y-120277331D01*
X148814091Y-120142483D01*
X148820500Y-120082873D01*
X148820499Y-118287128D01*
X148814091Y-118227517D01*
X148763796Y-118092669D01*
X148763795Y-118092668D01*
X148763793Y-118092664D01*
X148677547Y-117977455D01*
X148677544Y-117977452D01*
X148562335Y-117891206D01*
X148562328Y-117891202D01*
X148427482Y-117840908D01*
X148427483Y-117840908D01*
X148367883Y-117834501D01*
X148367881Y-117834500D01*
X148367873Y-117834500D01*
X148367864Y-117834500D01*
X146572129Y-117834500D01*
X146572123Y-117834501D01*
X146512516Y-117840908D01*
X146377671Y-117891202D01*
X146377664Y-117891206D01*
X146262455Y-117977452D01*
X146262452Y-117977455D01*
X146176206Y-118092664D01*
X146176202Y-118092671D01*
X146125908Y-118227517D01*
X146119501Y-118287116D01*
X146119500Y-118287127D01*
X146119500Y-119078713D01*
X146119501Y-119800500D01*
X146099816Y-119867539D01*
X146047013Y-119913294D01*
X145995501Y-119924500D01*
X144030097Y-119924500D01*
X143963058Y-119904815D01*
X143942416Y-119888181D01*
X143723757Y-119669522D01*
X143690272Y-119608199D01*
X143693507Y-119543523D01*
X143707246Y-119501243D01*
X143740500Y-119291287D01*
X143740500Y-119078713D01*
X143707246Y-118868757D01*
X143641557Y-118666588D01*
X143545051Y-118477184D01*
X143545049Y-118477181D01*
X143545048Y-118477179D01*
X143420109Y-118305213D01*
X143269786Y-118154890D01*
X143097820Y-118029951D01*
X142908414Y-117933444D01*
X142908413Y-117933443D01*
X142908412Y-117933443D01*
X142706243Y-117867754D01*
X142706241Y-117867753D01*
X142706240Y-117867753D01*
X142544957Y-117842208D01*
X142496287Y-117834500D01*
X142283713Y-117834500D01*
X142244202Y-117840757D01*
X142073759Y-117867753D01*
X142073755Y-117867754D01*
X142002817Y-117890803D01*
X141932976Y-117892798D01*
X141873143Y-117856717D01*
X141842316Y-117794016D01*
X141840500Y-117772872D01*
X141840500Y-115555097D01*
X141860185Y-115488058D01*
X141876819Y-115467416D01*
X142122224Y-115222011D01*
X142404664Y-114939571D01*
X142465985Y-114906088D01*
X142468152Y-114905637D01*
X142468841Y-114905500D01*
X142468842Y-114905500D01*
X142623497Y-114874737D01*
X142769179Y-114814394D01*
X142882092Y-114738947D01*
X142948768Y-114718070D01*
X143016148Y-114736554D01*
X143038663Y-114754369D01*
X144151759Y-115867465D01*
X144185244Y-115928788D01*
X144188078Y-115955146D01*
X144188078Y-116271780D01*
X144168393Y-116338819D01*
X144167180Y-116340671D01*
X144079187Y-116472360D01*
X144079180Y-116472373D01*
X144018842Y-116618044D01*
X144018839Y-116618056D01*
X143988078Y-116772699D01*
X143988078Y-116930392D01*
X144018839Y-117085035D01*
X144018842Y-117085047D01*
X144079180Y-117230718D01*
X144079187Y-117230731D01*
X144166788Y-117361834D01*
X144166791Y-117361838D01*
X144278285Y-117473332D01*
X144278289Y-117473335D01*
X144409392Y-117560936D01*
X144409405Y-117560943D01*
X144555076Y-117621281D01*
X144555081Y-117621283D01*
X144709731Y-117652045D01*
X144709734Y-117652046D01*
X144709736Y-117652046D01*
X144867422Y-117652046D01*
X144867423Y-117652045D01*
X145022075Y-117621283D01*
X145167757Y-117560940D01*
X145298867Y-117473335D01*
X145410367Y-117361835D01*
X145497972Y-117230725D01*
X145558315Y-117085043D01*
X145589078Y-116930388D01*
X145589078Y-116772704D01*
X145589078Y-116772701D01*
X145589077Y-116772699D01*
X145558316Y-116618056D01*
X145558315Y-116618049D01*
X145558313Y-116618044D01*
X145497975Y-116472373D01*
X145497968Y-116472360D01*
X145409976Y-116340671D01*
X145389098Y-116273993D01*
X145389078Y-116271780D01*
X145389078Y-115575994D01*
X145389078Y-115575992D01*
X145348155Y-115423265D01*
X145296653Y-115334060D01*
X145269102Y-115286339D01*
X145269099Y-115286335D01*
X145269098Y-115286333D01*
X145157294Y-115174529D01*
X145157293Y-115174528D01*
X145152963Y-115170198D01*
X145152952Y-115170188D01*
X143126119Y-113143355D01*
X143126117Y-113143352D01*
X143007246Y-113024481D01*
X143007245Y-113024480D01*
X142920433Y-112974360D01*
X142920433Y-112974359D01*
X142920429Y-112974358D01*
X142870314Y-112945423D01*
X142717586Y-112904499D01*
X142559472Y-112904499D01*
X142551876Y-112904499D01*
X142551860Y-112904500D01*
X141442711Y-112904500D01*
X141284597Y-112904500D01*
X141131869Y-112945423D01*
X141131868Y-112945423D01*
X141131866Y-112945424D01*
X141131863Y-112945425D01*
X141081750Y-112974359D01*
X141081749Y-112974360D01*
X141070129Y-112981069D01*
X140994939Y-113024479D01*
X140994936Y-113024481D01*
X140662181Y-113357237D01*
X140600858Y-113390722D01*
X140531166Y-113385738D01*
X140475233Y-113343866D01*
X140450816Y-113278402D01*
X140450500Y-113269556D01*
X140450500Y-105608435D01*
X140470185Y-105541396D01*
X140522989Y-105495641D01*
X140592147Y-105485697D01*
X140655703Y-105514722D01*
X140681886Y-105546433D01*
X140691675Y-105563388D01*
X140717448Y-105608030D01*
X140836318Y-105726900D01*
X140836324Y-105726905D01*
X143059580Y-107950161D01*
X143093065Y-108011484D01*
X143088081Y-108081176D01*
X143059582Y-108125521D01*
X143039890Y-108145213D01*
X142914951Y-108317179D01*
X142818444Y-108506585D01*
X142752753Y-108708760D01*
X142719500Y-108918713D01*
X142719500Y-109131286D01*
X142736043Y-109235738D01*
X142752754Y-109341243D01*
X142806145Y-109505564D01*
X142818444Y-109543414D01*
X142914951Y-109732820D01*
X143039890Y-109904786D01*
X143190213Y-110055109D01*
X143362179Y-110180048D01*
X143362181Y-110180049D01*
X143362184Y-110180051D01*
X143551588Y-110276557D01*
X143753757Y-110342246D01*
X143963713Y-110375500D01*
X143963714Y-110375500D01*
X144176286Y-110375500D01*
X144176287Y-110375500D01*
X144386243Y-110342246D01*
X144588412Y-110276557D01*
X144777816Y-110180051D01*
X144799789Y-110164086D01*
X144949786Y-110055109D01*
X144949788Y-110055106D01*
X144949792Y-110055104D01*
X145100104Y-109904792D01*
X145100106Y-109904788D01*
X145100109Y-109904786D01*
X145225048Y-109732820D01*
X145225047Y-109732820D01*
X145225051Y-109732816D01*
X145321557Y-109543412D01*
X145387246Y-109341243D01*
X145420500Y-109131287D01*
X145420500Y-108918713D01*
X145387246Y-108708757D01*
X145321557Y-108506588D01*
X145225051Y-108317184D01*
X145225049Y-108317181D01*
X145225048Y-108317179D01*
X145100109Y-108145213D01*
X145080419Y-108125523D01*
X145046934Y-108064200D01*
X145051918Y-107994508D01*
X145080419Y-107950161D01*
X145356080Y-107674500D01*
X146378506Y-106652074D01*
X146378511Y-106652070D01*
X146388714Y-106641866D01*
X146388716Y-106641866D01*
X146500520Y-106530062D01*
X146579577Y-106393130D01*
X146620500Y-106240403D01*
X146620500Y-91489597D01*
X146579577Y-91336870D01*
X146579573Y-91336863D01*
X146500524Y-91199944D01*
X146500521Y-91199940D01*
X146500520Y-91199938D01*
X146388716Y-91088134D01*
X146388715Y-91088133D01*
X146384385Y-91083803D01*
X146384374Y-91083793D01*
X145033936Y-89733355D01*
X145033934Y-89733352D01*
X144915063Y-89614481D01*
X144915062Y-89614480D01*
X144828250Y-89564360D01*
X144828250Y-89564359D01*
X144828246Y-89564358D01*
X144778131Y-89535423D01*
X144625403Y-89494499D01*
X144467289Y-89494499D01*
X144459693Y-89494499D01*
X144459677Y-89494500D01*
X143680323Y-89494500D01*
X143680307Y-89494499D01*
X143672711Y-89494499D01*
X143514597Y-89494499D01*
X143407241Y-89523265D01*
X143361864Y-89535424D01*
X143361863Y-89535425D01*
X143311750Y-89564359D01*
X143311749Y-89564360D01*
X143268343Y-89589420D01*
X143224939Y-89614479D01*
X143224936Y-89614481D01*
X123632181Y-109207237D01*
X123570858Y-109240722D01*
X123501166Y-109235738D01*
X123445233Y-109193866D01*
X123420816Y-109128402D01*
X123420500Y-109119556D01*
X123420500Y-108918713D01*
X123387246Y-108708760D01*
X123387246Y-108708757D01*
X123321557Y-108506588D01*
X123225051Y-108317184D01*
X123225049Y-108317181D01*
X123225048Y-108317179D01*
X123100109Y-108145213D01*
X122949786Y-107994890D01*
X122777820Y-107869951D01*
X122588414Y-107773444D01*
X122588413Y-107773443D01*
X122588412Y-107773443D01*
X122386243Y-107707754D01*
X122386241Y-107707753D01*
X122386240Y-107707753D01*
X122224957Y-107682208D01*
X122176287Y-107674500D01*
X121963713Y-107674500D01*
X121915042Y-107682208D01*
X121753760Y-107707753D01*
X121551585Y-107773444D01*
X121362179Y-107869951D01*
X121190213Y-107994890D01*
X121039890Y-108145213D01*
X120914951Y-108317179D01*
X120818444Y-108506585D01*
X120752753Y-108708760D01*
X120719500Y-108918713D01*
X120719500Y-109131286D01*
X120736043Y-109235738D01*
X120752754Y-109341243D01*
X120806145Y-109505564D01*
X120818444Y-109543414D01*
X120914951Y-109732820D01*
X121039890Y-109904786D01*
X121190213Y-110055109D01*
X121362179Y-110180048D01*
X121362181Y-110180049D01*
X121362184Y-110180051D01*
X121551588Y-110276557D01*
X121753757Y-110342246D01*
X121963713Y-110375500D01*
X121963714Y-110375500D01*
X122164556Y-110375500D01*
X122231595Y-110395185D01*
X122277350Y-110447989D01*
X122287294Y-110517147D01*
X122258269Y-110580703D01*
X122252237Y-110587181D01*
X120439480Y-112399937D01*
X120437023Y-112404193D01*
X120434737Y-112408154D01*
X120360423Y-112536869D01*
X120319499Y-112689597D01*
X120319499Y-112689598D01*
X120319499Y-112857700D01*
X120319500Y-112857713D01*
X120319500Y-149460500D01*
X120299815Y-149527539D01*
X120247011Y-149573294D01*
X120195500Y-149584500D01*
X118632129Y-149584500D01*
X118632123Y-149584501D01*
X118572516Y-149590908D01*
X118437671Y-149641202D01*
X118437664Y-149641206D01*
X118322455Y-149727452D01*
X118322452Y-149727455D01*
X118236206Y-149842664D01*
X118236202Y-149842671D01*
X118185908Y-149977517D01*
X118179501Y-150037116D01*
X118179500Y-150037135D01*
X118179500Y-151832870D01*
X118179501Y-151832876D01*
X118185908Y-151892483D01*
X118236202Y-152027328D01*
X118236206Y-152027335D01*
X118322452Y-152142544D01*
X118322455Y-152142547D01*
X118437664Y-152228793D01*
X118437671Y-152228797D01*
X118572517Y-152279091D01*
X118572516Y-152279091D01*
X118579444Y-152279835D01*
X118632127Y-152285500D01*
X120195500Y-152285499D01*
X120262539Y-152305184D01*
X120308294Y-152357987D01*
X120319500Y-152409499D01*
X120319500Y-154324902D01*
X120299815Y-154391941D01*
X120283181Y-154412583D01*
X120014522Y-154681241D01*
X119953199Y-154714726D01*
X119888523Y-154711491D01*
X119846245Y-154697754D01*
X119706272Y-154675584D01*
X119636287Y-154664500D01*
X119423713Y-154664500D01*
X119375042Y-154672208D01*
X119213760Y-154697753D01*
X119011585Y-154763444D01*
X118822182Y-154859950D01*
X118650213Y-154984890D01*
X118499890Y-155135213D01*
X118374951Y-155307179D01*
X118278444Y-155496585D01*
X118212753Y-155698760D01*
X118212753Y-155698762D01*
X118179500Y-155908713D01*
X118179500Y-156121287D01*
X118212754Y-156331243D01*
X118240321Y-156416086D01*
X118278444Y-156533414D01*
X118374951Y-156722820D01*
X118499890Y-156894786D01*
X118650213Y-157045109D01*
X118822182Y-157170050D01*
X118830946Y-157174516D01*
X118881742Y-157222491D01*
X118898536Y-157290312D01*
X118875998Y-157356447D01*
X118830946Y-157395484D01*
X118822182Y-157399949D01*
X118650213Y-157524890D01*
X118499890Y-157675213D01*
X118374951Y-157847179D01*
X118278444Y-158036585D01*
X118212753Y-158238760D01*
X118179500Y-158448713D01*
X118179500Y-158661286D01*
X118212753Y-158871239D01*
X118278444Y-159073414D01*
X118374951Y-159262820D01*
X118499890Y-159434786D01*
X118650213Y-159585109D01*
X118822182Y-159710050D01*
X118830946Y-159714516D01*
X118881742Y-159762491D01*
X118898536Y-159830312D01*
X118875998Y-159896447D01*
X118830946Y-159935484D01*
X118822182Y-159939949D01*
X118650213Y-160064890D01*
X118499890Y-160215213D01*
X118374951Y-160387179D01*
X118278444Y-160576585D01*
X118212753Y-160778760D01*
X118179500Y-160988713D01*
X118179500Y-161201287D01*
X118189534Y-161264644D01*
X118202474Y-161346342D01*
X118212754Y-161411243D01*
X118240185Y-161495668D01*
X118278444Y-161613414D01*
X118374951Y-161802820D01*
X118499890Y-161974786D01*
X118650213Y-162125109D01*
X118822182Y-162250050D01*
X118830946Y-162254516D01*
X118881742Y-162302491D01*
X118898536Y-162370312D01*
X118875998Y-162436447D01*
X118830946Y-162475484D01*
X118822182Y-162479949D01*
X118650213Y-162604890D01*
X118499890Y-162755213D01*
X118374951Y-162927179D01*
X118278444Y-163116585D01*
X118212753Y-163318760D01*
X118179500Y-163528713D01*
X118179500Y-163741286D01*
X118212753Y-163951239D01*
X118278444Y-164153414D01*
X118374951Y-164342820D01*
X118499890Y-164514786D01*
X118650213Y-164665109D01*
X118822179Y-164790048D01*
X118822181Y-164790049D01*
X118822184Y-164790051D01*
X119011588Y-164886557D01*
X119213757Y-164952246D01*
X119423713Y-164985500D01*
X119423714Y-164985500D01*
X119636286Y-164985500D01*
X119636287Y-164985500D01*
X119846243Y-164952246D01*
X120048412Y-164886557D01*
X120237816Y-164790051D01*
X120259789Y-164774086D01*
X120409786Y-164665109D01*
X120409788Y-164665106D01*
X120409792Y-164665104D01*
X120560104Y-164514792D01*
X120560106Y-164514788D01*
X120560109Y-164514786D01*
X120685048Y-164342820D01*
X120685047Y-164342820D01*
X120685051Y-164342816D01*
X120781557Y-164153412D01*
X120847246Y-163951243D01*
X120880500Y-163741287D01*
X120880500Y-163528713D01*
X120847246Y-163318757D01*
X120781557Y-163116588D01*
X120685051Y-162927184D01*
X120685049Y-162927181D01*
X120685048Y-162927179D01*
X120560109Y-162755213D01*
X120409786Y-162604890D01*
X120237820Y-162479951D01*
X120237115Y-162479591D01*
X120229054Y-162475485D01*
X120178259Y-162427512D01*
X120161463Y-162359692D01*
X120183999Y-162293556D01*
X120229054Y-162254515D01*
X120237816Y-162250051D01*
X120259789Y-162234086D01*
X120409786Y-162125109D01*
X120409788Y-162125106D01*
X120409792Y-162125104D01*
X120560104Y-161974792D01*
X120560106Y-161974788D01*
X120560109Y-161974786D01*
X120685048Y-161802820D01*
X120685047Y-161802820D01*
X120685051Y-161802816D01*
X120704328Y-161764983D01*
X125849500Y-161764983D01*
X125849500Y-162965001D01*
X125849501Y-162965018D01*
X125860000Y-163067796D01*
X125860001Y-163067799D01*
X125915185Y-163234331D01*
X125915186Y-163234334D01*
X126007288Y-163383656D01*
X126131344Y-163507712D01*
X126280666Y-163599814D01*
X126447203Y-163654999D01*
X126549991Y-163665500D01*
X127750008Y-163665499D01*
X127852797Y-163654999D01*
X128019334Y-163599814D01*
X128168656Y-163507712D01*
X128292712Y-163383656D01*
X128384814Y-163234334D01*
X128439999Y-163067797D01*
X128450500Y-162965009D01*
X128450499Y-161764992D01*
X128439999Y-161662203D01*
X128384814Y-161495666D01*
X128292712Y-161346344D01*
X128168656Y-161222288D01*
X128019334Y-161130186D01*
X127852797Y-161075001D01*
X127852795Y-161075000D01*
X127750010Y-161064500D01*
X126549998Y-161064500D01*
X126549981Y-161064501D01*
X126447203Y-161075000D01*
X126447200Y-161075001D01*
X126280668Y-161130185D01*
X126280663Y-161130187D01*
X126131342Y-161222289D01*
X126007289Y-161346342D01*
X125915187Y-161495663D01*
X125915186Y-161495666D01*
X125860001Y-161662203D01*
X125860001Y-161662204D01*
X125860000Y-161662204D01*
X125849500Y-161764983D01*
X120704328Y-161764983D01*
X120781557Y-161613412D01*
X120847246Y-161411243D01*
X120880500Y-161201287D01*
X120880500Y-160988713D01*
X120847246Y-160778757D01*
X120781557Y-160576588D01*
X120685051Y-160387184D01*
X120685049Y-160387181D01*
X120685048Y-160387179D01*
X120560109Y-160215213D01*
X120409786Y-160064890D01*
X120237820Y-159939951D01*
X120237115Y-159939591D01*
X120229054Y-159935485D01*
X120178259Y-159887512D01*
X120161463Y-159819692D01*
X120183999Y-159753556D01*
X120229054Y-159714515D01*
X120237816Y-159710051D01*
X120259789Y-159694086D01*
X120409786Y-159585109D01*
X120409788Y-159585106D01*
X120409792Y-159585104D01*
X120560104Y-159434792D01*
X120560106Y-159434788D01*
X120560109Y-159434786D01*
X120685048Y-159262820D01*
X120685047Y-159262820D01*
X120685051Y-159262816D01*
X120781557Y-159073412D01*
X120847246Y-158871243D01*
X120880500Y-158661287D01*
X120880500Y-158448713D01*
X120847246Y-158238757D01*
X120833506Y-158196473D01*
X120831512Y-158126635D01*
X120863755Y-158070478D01*
X123578506Y-155355728D01*
X123578511Y-155355724D01*
X123588714Y-155345520D01*
X123588716Y-155345520D01*
X123700520Y-155233716D01*
X123761342Y-155128368D01*
X123779577Y-155096785D01*
X123820501Y-154944057D01*
X123820501Y-154785943D01*
X123820501Y-154778348D01*
X123820500Y-154778330D01*
X123820500Y-144478713D01*
X128339500Y-144478713D01*
X128339500Y-144691286D01*
X128372753Y-144901239D01*
X128438444Y-145103414D01*
X128534951Y-145292820D01*
X128659890Y-145464786D01*
X128810213Y-145615109D01*
X128982179Y-145740048D01*
X128982181Y-145740049D01*
X128982184Y-145740051D01*
X129171588Y-145836557D01*
X129373757Y-145902246D01*
X129583713Y-145935500D01*
X129583714Y-145935500D01*
X129796286Y-145935500D01*
X129796287Y-145935500D01*
X130006243Y-145902246D01*
X130208412Y-145836557D01*
X130397816Y-145740051D01*
X130419789Y-145724086D01*
X130569786Y-145615109D01*
X130569788Y-145615106D01*
X130569792Y-145615104D01*
X130720104Y-145464792D01*
X130720106Y-145464788D01*
X130720109Y-145464786D01*
X130845048Y-145292820D01*
X130845047Y-145292820D01*
X130845051Y-145292816D01*
X130941557Y-145103412D01*
X131007246Y-144901243D01*
X131040500Y-144691287D01*
X131040500Y-144478713D01*
X131007246Y-144268757D01*
X130941557Y-144066588D01*
X130845051Y-143877184D01*
X130845049Y-143877181D01*
X130845048Y-143877179D01*
X130720109Y-143705213D01*
X130569786Y-143554890D01*
X130397820Y-143429951D01*
X130208414Y-143333444D01*
X130208413Y-143333443D01*
X130208412Y-143333443D01*
X130006243Y-143267754D01*
X130006241Y-143267753D01*
X130006240Y-143267753D01*
X129844957Y-143242208D01*
X129796287Y-143234500D01*
X129583713Y-143234500D01*
X129535042Y-143242208D01*
X129373760Y-143267753D01*
X129171585Y-143333444D01*
X128982179Y-143429951D01*
X128810213Y-143554890D01*
X128659890Y-143705213D01*
X128534951Y-143877179D01*
X128438444Y-144066585D01*
X128372753Y-144268760D01*
X128339500Y-144478713D01*
X123820500Y-144478713D01*
X123820500Y-131778713D01*
X128339500Y-131778713D01*
X128339500Y-131991287D01*
X128372754Y-132201243D01*
X128400321Y-132286086D01*
X128438444Y-132403414D01*
X128534951Y-132592820D01*
X128659890Y-132764786D01*
X128810213Y-132915109D01*
X128982182Y-133040050D01*
X128990946Y-133044516D01*
X129041742Y-133092491D01*
X129058536Y-133160312D01*
X129035998Y-133226447D01*
X128990946Y-133265484D01*
X128982182Y-133269949D01*
X128810213Y-133394890D01*
X128659890Y-133545213D01*
X128534951Y-133717179D01*
X128438444Y-133906585D01*
X128372753Y-134108760D01*
X128339500Y-134318713D01*
X128339500Y-134531286D01*
X128372753Y-134741239D01*
X128438444Y-134943414D01*
X128534951Y-135132820D01*
X128659890Y-135304786D01*
X128810213Y-135455109D01*
X128982182Y-135580050D01*
X128990946Y-135584516D01*
X129041742Y-135632491D01*
X129058536Y-135700312D01*
X129035998Y-135766447D01*
X128990946Y-135805484D01*
X128982182Y-135809949D01*
X128810213Y-135934890D01*
X128659890Y-136085213D01*
X128534951Y-136257179D01*
X128438444Y-136446585D01*
X128372753Y-136648760D01*
X128339500Y-136858713D01*
X128339500Y-137071286D01*
X128372753Y-137281239D01*
X128438444Y-137483414D01*
X128534951Y-137672820D01*
X128659890Y-137844786D01*
X128810213Y-137995109D01*
X128982182Y-138120050D01*
X128990946Y-138124516D01*
X129041742Y-138172491D01*
X129058536Y-138240312D01*
X129035998Y-138306447D01*
X128990946Y-138345484D01*
X128982182Y-138349949D01*
X128810213Y-138474890D01*
X128659890Y-138625213D01*
X128534951Y-138797179D01*
X128438444Y-138986585D01*
X128372753Y-139188760D01*
X128339500Y-139398713D01*
X128339500Y-139611286D01*
X128372753Y-139821239D01*
X128438444Y-140023414D01*
X128534951Y-140212820D01*
X128659890Y-140384786D01*
X128810213Y-140535109D01*
X128982179Y-140660048D01*
X128982181Y-140660049D01*
X128982184Y-140660051D01*
X129171588Y-140756557D01*
X129373757Y-140822246D01*
X129583713Y-140855500D01*
X129583714Y-140855500D01*
X129796286Y-140855500D01*
X129796287Y-140855500D01*
X130006243Y-140822246D01*
X130208412Y-140756557D01*
X130397816Y-140660051D01*
X130419789Y-140644086D01*
X130569786Y-140535109D01*
X130569788Y-140535106D01*
X130569792Y-140535104D01*
X130720104Y-140384792D01*
X130720106Y-140384788D01*
X130720109Y-140384786D01*
X130845048Y-140212820D01*
X130845047Y-140212820D01*
X130845051Y-140212816D01*
X130941557Y-140023412D01*
X131007246Y-139821243D01*
X131040500Y-139611287D01*
X131040500Y-139398713D01*
X143579500Y-139398713D01*
X143579500Y-139611286D01*
X143612753Y-139821239D01*
X143678444Y-140023414D01*
X143774951Y-140212820D01*
X143899890Y-140384786D01*
X144050213Y-140535109D01*
X144222182Y-140660050D01*
X144230946Y-140664516D01*
X144281742Y-140712491D01*
X144298536Y-140780312D01*
X144275998Y-140846447D01*
X144230946Y-140885484D01*
X144222182Y-140889949D01*
X144050213Y-141014890D01*
X143899890Y-141165213D01*
X143774951Y-141337179D01*
X143678444Y-141526585D01*
X143612753Y-141728760D01*
X143579500Y-141938713D01*
X143579500Y-142151286D01*
X143612753Y-142361239D01*
X143678444Y-142563414D01*
X143774951Y-142752820D01*
X143899890Y-142924786D01*
X144050213Y-143075109D01*
X144222182Y-143200050D01*
X144230946Y-143204516D01*
X144281742Y-143252491D01*
X144298536Y-143320312D01*
X144275998Y-143386447D01*
X144230946Y-143425484D01*
X144222182Y-143429949D01*
X144050213Y-143554890D01*
X143899890Y-143705213D01*
X143774951Y-143877179D01*
X143678444Y-144066585D01*
X143612753Y-144268760D01*
X143579500Y-144478713D01*
X143579500Y-144691286D01*
X143612753Y-144901239D01*
X143678444Y-145103414D01*
X143774951Y-145292820D01*
X143899890Y-145464786D01*
X144050213Y-145615109D01*
X144222179Y-145740048D01*
X144222181Y-145740049D01*
X144222184Y-145740051D01*
X144411588Y-145836557D01*
X144613757Y-145902246D01*
X144823713Y-145935500D01*
X144823714Y-145935500D01*
X145036286Y-145935500D01*
X145036287Y-145935500D01*
X145246243Y-145902246D01*
X145448412Y-145836557D01*
X145637816Y-145740051D01*
X145659789Y-145724086D01*
X145809786Y-145615109D01*
X145809788Y-145615106D01*
X145809792Y-145615104D01*
X145960104Y-145464792D01*
X145960106Y-145464788D01*
X145960109Y-145464786D01*
X146085048Y-145292820D01*
X146085047Y-145292820D01*
X146085051Y-145292816D01*
X146089514Y-145284054D01*
X146137488Y-145233259D01*
X146205308Y-145216463D01*
X146271444Y-145238999D01*
X146310486Y-145284056D01*
X146314951Y-145292820D01*
X146439890Y-145464786D01*
X146590213Y-145615109D01*
X146762179Y-145740048D01*
X146762181Y-145740049D01*
X146762184Y-145740051D01*
X146951588Y-145836557D01*
X147153757Y-145902246D01*
X147363713Y-145935500D01*
X147363714Y-145935500D01*
X147576286Y-145935500D01*
X147576287Y-145935500D01*
X147786243Y-145902246D01*
X147988412Y-145836557D01*
X148177816Y-145740051D01*
X148199789Y-145724086D01*
X148349786Y-145615109D01*
X148349788Y-145615106D01*
X148349792Y-145615104D01*
X148500104Y-145464792D01*
X148500106Y-145464788D01*
X148500109Y-145464786D01*
X148625048Y-145292820D01*
X148625047Y-145292820D01*
X148625051Y-145292816D01*
X148721557Y-145103412D01*
X148787246Y-144901243D01*
X148820500Y-144691287D01*
X148820500Y-144478713D01*
X148787246Y-144268757D01*
X148721557Y-144066588D01*
X148625051Y-143877184D01*
X148625049Y-143877181D01*
X148625048Y-143877179D01*
X148500109Y-143705213D01*
X148349786Y-143554890D01*
X148177820Y-143429951D01*
X148177115Y-143429591D01*
X148169054Y-143425485D01*
X148118259Y-143377512D01*
X148101463Y-143309692D01*
X148123999Y-143243556D01*
X148169054Y-143204515D01*
X148177816Y-143200051D01*
X148199789Y-143184086D01*
X148349786Y-143075109D01*
X148349788Y-143075106D01*
X148349792Y-143075104D01*
X148500104Y-142924792D01*
X148500106Y-142924788D01*
X148500109Y-142924786D01*
X148625048Y-142752820D01*
X148625047Y-142752820D01*
X148625051Y-142752816D01*
X148721557Y-142563412D01*
X148787246Y-142361243D01*
X148820500Y-142151287D01*
X148820500Y-141938713D01*
X148787246Y-141728757D01*
X148721557Y-141526588D01*
X148625051Y-141337184D01*
X148625049Y-141337181D01*
X148625048Y-141337179D01*
X148500109Y-141165213D01*
X148349786Y-141014890D01*
X148177820Y-140889951D01*
X148177115Y-140889591D01*
X148169054Y-140885485D01*
X148118259Y-140837512D01*
X148101463Y-140769692D01*
X148123999Y-140703556D01*
X148169054Y-140664515D01*
X148177816Y-140660051D01*
X148199789Y-140644086D01*
X148349786Y-140535109D01*
X148349788Y-140535106D01*
X148349792Y-140535104D01*
X148500104Y-140384792D01*
X148500106Y-140384788D01*
X148500109Y-140384786D01*
X148625048Y-140212820D01*
X148625047Y-140212820D01*
X148625051Y-140212816D01*
X148721557Y-140023412D01*
X148787246Y-139821243D01*
X148820500Y-139611287D01*
X148820500Y-139398713D01*
X148787246Y-139188757D01*
X148721557Y-138986588D01*
X148625051Y-138797184D01*
X148625049Y-138797181D01*
X148625048Y-138797179D01*
X148500109Y-138625213D01*
X148349786Y-138474890D01*
X148177820Y-138349951D01*
X148177115Y-138349591D01*
X148169054Y-138345485D01*
X148118259Y-138297512D01*
X148101463Y-138229692D01*
X148123999Y-138163556D01*
X148169054Y-138124515D01*
X148177816Y-138120051D01*
X148199789Y-138104086D01*
X148349786Y-137995109D01*
X148349788Y-137995106D01*
X148349792Y-137995104D01*
X148500104Y-137844792D01*
X148500106Y-137844788D01*
X148500109Y-137844786D01*
X148625048Y-137672820D01*
X148625047Y-137672820D01*
X148625051Y-137672816D01*
X148721557Y-137483412D01*
X148787246Y-137281243D01*
X148820500Y-137071287D01*
X148820500Y-136858713D01*
X148787246Y-136648757D01*
X148721557Y-136446588D01*
X148625051Y-136257184D01*
X148625049Y-136257181D01*
X148625048Y-136257179D01*
X148500109Y-136085213D01*
X148349786Y-135934890D01*
X148177820Y-135809951D01*
X147988414Y-135713444D01*
X147988413Y-135713443D01*
X147988412Y-135713443D01*
X147786243Y-135647754D01*
X147786241Y-135647753D01*
X147786240Y-135647753D01*
X147624957Y-135622208D01*
X147576287Y-135614500D01*
X147363713Y-135614500D01*
X147315042Y-135622208D01*
X147153760Y-135647753D01*
X146951585Y-135713444D01*
X146762179Y-135809951D01*
X146590213Y-135934890D01*
X146439890Y-136085213D01*
X146314951Y-136257179D01*
X146218444Y-136446585D01*
X146152753Y-136648760D01*
X146119500Y-136858713D01*
X146119500Y-137071286D01*
X146152753Y-137281239D01*
X146218444Y-137483414D01*
X146314951Y-137672820D01*
X146439890Y-137844786D01*
X146590213Y-137995109D01*
X146762182Y-138120050D01*
X146770946Y-138124516D01*
X146821742Y-138172491D01*
X146838536Y-138240312D01*
X146815998Y-138306447D01*
X146770946Y-138345484D01*
X146762182Y-138349949D01*
X146590213Y-138474890D01*
X146439890Y-138625213D01*
X146314949Y-138797182D01*
X146310484Y-138805946D01*
X146262509Y-138856742D01*
X146194688Y-138873536D01*
X146128553Y-138850998D01*
X146089516Y-138805946D01*
X146085050Y-138797182D01*
X145960109Y-138625213D01*
X145809786Y-138474890D01*
X145637820Y-138349951D01*
X145448414Y-138253444D01*
X145448413Y-138253443D01*
X145448412Y-138253443D01*
X145246243Y-138187754D01*
X145246241Y-138187753D01*
X145246240Y-138187753D01*
X145084957Y-138162208D01*
X145036287Y-138154500D01*
X144823713Y-138154500D01*
X144775042Y-138162208D01*
X144613760Y-138187753D01*
X144411585Y-138253444D01*
X144222179Y-138349951D01*
X144050213Y-138474890D01*
X143899890Y-138625213D01*
X143774951Y-138797179D01*
X143678444Y-138986585D01*
X143612753Y-139188760D01*
X143579500Y-139398713D01*
X131040500Y-139398713D01*
X131007246Y-139188757D01*
X130941557Y-138986588D01*
X130845051Y-138797184D01*
X130845049Y-138797181D01*
X130845048Y-138797179D01*
X130720109Y-138625213D01*
X130569786Y-138474890D01*
X130397820Y-138349951D01*
X130397115Y-138349591D01*
X130389054Y-138345485D01*
X130338259Y-138297512D01*
X130321463Y-138229692D01*
X130343999Y-138163556D01*
X130389054Y-138124515D01*
X130397816Y-138120051D01*
X130419789Y-138104086D01*
X130569786Y-137995109D01*
X130569788Y-137995106D01*
X130569792Y-137995104D01*
X130720104Y-137844792D01*
X130720106Y-137844788D01*
X130720109Y-137844786D01*
X130845048Y-137672820D01*
X130845047Y-137672820D01*
X130845051Y-137672816D01*
X130941557Y-137483412D01*
X131007246Y-137281243D01*
X131040500Y-137071287D01*
X131040500Y-136858713D01*
X131007246Y-136648757D01*
X130941557Y-136446588D01*
X130845051Y-136257184D01*
X130845049Y-136257181D01*
X130845048Y-136257179D01*
X130720109Y-136085213D01*
X130569786Y-135934890D01*
X130397820Y-135809951D01*
X130397115Y-135809591D01*
X130389054Y-135805485D01*
X130338259Y-135757512D01*
X130321463Y-135689692D01*
X130343999Y-135623556D01*
X130389054Y-135584515D01*
X130397816Y-135580051D01*
X130419789Y-135564086D01*
X130569786Y-135455109D01*
X130569788Y-135455106D01*
X130569792Y-135455104D01*
X130720104Y-135304792D01*
X130720106Y-135304788D01*
X130720109Y-135304786D01*
X130845048Y-135132820D01*
X130845047Y-135132820D01*
X130845051Y-135132816D01*
X130941557Y-134943412D01*
X131007246Y-134741243D01*
X131040500Y-134531287D01*
X131040500Y-134318713D01*
X131007246Y-134108757D01*
X130941557Y-133906588D01*
X130845051Y-133717184D01*
X130845049Y-133717181D01*
X130845048Y-133717179D01*
X130720109Y-133545213D01*
X130569786Y-133394890D01*
X130397820Y-133269951D01*
X130397115Y-133269591D01*
X130389054Y-133265485D01*
X130338259Y-133217512D01*
X130321463Y-133149692D01*
X130343999Y-133083556D01*
X130389054Y-133044515D01*
X130397816Y-133040051D01*
X130419789Y-133024086D01*
X130569786Y-132915109D01*
X130569788Y-132915106D01*
X130569792Y-132915104D01*
X130720104Y-132764792D01*
X130720106Y-132764788D01*
X130720109Y-132764786D01*
X130845048Y-132592820D01*
X130845047Y-132592820D01*
X130845051Y-132592816D01*
X130941557Y-132403412D01*
X131007246Y-132201243D01*
X131040500Y-131991287D01*
X131040500Y-131778713D01*
X131007246Y-131568757D01*
X130941557Y-131366588D01*
X130845051Y-131177184D01*
X130845049Y-131177181D01*
X130845048Y-131177179D01*
X130720109Y-131005213D01*
X130569786Y-130854890D01*
X130397820Y-130729951D01*
X130208414Y-130633444D01*
X130208413Y-130633443D01*
X130208412Y-130633443D01*
X130006243Y-130567754D01*
X130006241Y-130567753D01*
X130006240Y-130567753D01*
X129844957Y-130542208D01*
X129796287Y-130534500D01*
X129583713Y-130534500D01*
X129535042Y-130542208D01*
X129373760Y-130567753D01*
X129171585Y-130633444D01*
X128982179Y-130729951D01*
X128810213Y-130854890D01*
X128659890Y-131005213D01*
X128534951Y-131177179D01*
X128438444Y-131366585D01*
X128372753Y-131568760D01*
X128339500Y-131778713D01*
X123820500Y-131778713D01*
X123820500Y-129973261D01*
X125642392Y-129973261D01*
X125642392Y-130130954D01*
X125673153Y-130285597D01*
X125673156Y-130285609D01*
X125733494Y-130431280D01*
X125733501Y-130431293D01*
X125821102Y-130562396D01*
X125821105Y-130562400D01*
X125932599Y-130673894D01*
X125932603Y-130673897D01*
X126063706Y-130761498D01*
X126063719Y-130761505D01*
X126209390Y-130821843D01*
X126209395Y-130821845D01*
X126364045Y-130852607D01*
X126364048Y-130852608D01*
X126364050Y-130852608D01*
X126521736Y-130852608D01*
X126521737Y-130852607D01*
X126676389Y-130821845D01*
X126822071Y-130761502D01*
X126953181Y-130673897D01*
X127064681Y-130562397D01*
X127152286Y-130431287D01*
X127212629Y-130285605D01*
X127232005Y-130188193D01*
X127243530Y-130130258D01*
X127275915Y-130068347D01*
X127277411Y-130066823D01*
X129152416Y-128191817D01*
X129213739Y-128158333D01*
X129240097Y-128155499D01*
X130587871Y-128155499D01*
X130587872Y-128155499D01*
X130647483Y-128149091D01*
X130782331Y-128098796D01*
X130897546Y-128012546D01*
X130983796Y-127897331D01*
X131034091Y-127762483D01*
X131040500Y-127702873D01*
X131040499Y-125907128D01*
X131034091Y-125847517D01*
X130983796Y-125712669D01*
X130983795Y-125712668D01*
X130983793Y-125712664D01*
X130897547Y-125597455D01*
X130897544Y-125597452D01*
X130782335Y-125511206D01*
X130782328Y-125511202D01*
X130647482Y-125460908D01*
X130647483Y-125460908D01*
X130587883Y-125454501D01*
X130587881Y-125454500D01*
X130587873Y-125454500D01*
X130587864Y-125454500D01*
X128792129Y-125454500D01*
X128792123Y-125454501D01*
X128732516Y-125460908D01*
X128597671Y-125511202D01*
X128597664Y-125511206D01*
X128482455Y-125597452D01*
X128482452Y-125597455D01*
X128396206Y-125712664D01*
X128396202Y-125712671D01*
X128345908Y-125847517D01*
X128341510Y-125888431D01*
X128339501Y-125907123D01*
X128339500Y-125907135D01*
X128339500Y-127254902D01*
X128319815Y-127321941D01*
X128303181Y-127342583D01*
X126428231Y-129217533D01*
X126366908Y-129251018D01*
X126364742Y-129251469D01*
X126209400Y-129282369D01*
X126209390Y-129282372D01*
X126063719Y-129342710D01*
X126063706Y-129342717D01*
X125932603Y-129430318D01*
X125932599Y-129430321D01*
X125821105Y-129541815D01*
X125821102Y-129541819D01*
X125733501Y-129672922D01*
X125733494Y-129672935D01*
X125673156Y-129818606D01*
X125673153Y-129818618D01*
X125642392Y-129973261D01*
X123820500Y-129973261D01*
X123820500Y-113308751D01*
X123840185Y-113241712D01*
X123856819Y-113221070D01*
X133239176Y-103838713D01*
X142682921Y-94394967D01*
X142704399Y-94383239D01*
X142723504Y-94367942D01*
X142734520Y-94366792D01*
X142744242Y-94361484D01*
X142768652Y-94363229D01*
X142792996Y-94360689D01*
X142802885Y-94365677D01*
X142813934Y-94366468D01*
X142833525Y-94381134D01*
X142855378Y-94392158D01*
X142864550Y-94404360D01*
X142869867Y-94408340D01*
X142877438Y-94419708D01*
X142879367Y-94422982D01*
X142914949Y-94492816D01*
X142944343Y-94533274D01*
X142947365Y-94538403D01*
X142954504Y-94566743D01*
X142964325Y-94594266D01*
X142962939Y-94600223D01*
X142964434Y-94606156D01*
X142955117Y-94633859D01*
X142948499Y-94662320D01*
X142943201Y-94669292D01*
X142942163Y-94672381D01*
X142938823Y-94675055D01*
X142928209Y-94689026D01*
X142922755Y-94694479D01*
X142922755Y-94694480D01*
X142810951Y-94806284D01*
X133139481Y-104477753D01*
X133139479Y-104477755D01*
X133126406Y-104500400D01*
X133106979Y-104534049D01*
X133060423Y-104614686D01*
X133019499Y-104767414D01*
X133019499Y-104767416D01*
X133019499Y-104935517D01*
X133019500Y-104935530D01*
X133019500Y-123028330D01*
X133019499Y-123028348D01*
X133019499Y-123194054D01*
X133019498Y-123194054D01*
X133060423Y-123346785D01*
X133089358Y-123396900D01*
X133089359Y-123396904D01*
X133089360Y-123396904D01*
X133139479Y-123483714D01*
X133139481Y-123483717D01*
X133258349Y-123602585D01*
X133258355Y-123602590D01*
X143596241Y-133940476D01*
X143629726Y-134001799D01*
X143626492Y-134066473D01*
X143612753Y-134108757D01*
X143579500Y-134318713D01*
X143579500Y-134531286D01*
X143612753Y-134741239D01*
X143678444Y-134943414D01*
X143774951Y-135132820D01*
X143899890Y-135304786D01*
X144050213Y-135455109D01*
X144222179Y-135580048D01*
X144222181Y-135580049D01*
X144222184Y-135580051D01*
X144411588Y-135676557D01*
X144613757Y-135742246D01*
X144823713Y-135775500D01*
X144823714Y-135775500D01*
X145036286Y-135775500D01*
X145036287Y-135775500D01*
X145246243Y-135742246D01*
X145448412Y-135676557D01*
X145637816Y-135580051D01*
X145659789Y-135564086D01*
X145809786Y-135455109D01*
X145809788Y-135455106D01*
X145809792Y-135455104D01*
X145960104Y-135304792D01*
X145960106Y-135304788D01*
X145960109Y-135304786D01*
X146085048Y-135132820D01*
X146085047Y-135132820D01*
X146085051Y-135132816D01*
X146181557Y-134943412D01*
X146247246Y-134741243D01*
X146280500Y-134531287D01*
X146280500Y-134318713D01*
X146247246Y-134108757D01*
X146181557Y-133906588D01*
X146085051Y-133717184D01*
X146085049Y-133717181D01*
X146085048Y-133717179D01*
X145960109Y-133545213D01*
X145809786Y-133394890D01*
X145637820Y-133269951D01*
X145637115Y-133269591D01*
X145629054Y-133265485D01*
X145578259Y-133217512D01*
X145561463Y-133149692D01*
X145583999Y-133083556D01*
X145629054Y-133044515D01*
X145637816Y-133040051D01*
X145659789Y-133024086D01*
X145809786Y-132915109D01*
X145809788Y-132915106D01*
X145809792Y-132915104D01*
X145960104Y-132764792D01*
X145960106Y-132764788D01*
X145960109Y-132764786D01*
X146085048Y-132592820D01*
X146085047Y-132592820D01*
X146085051Y-132592816D01*
X146089514Y-132584054D01*
X146137488Y-132533259D01*
X146205308Y-132516463D01*
X146271444Y-132538999D01*
X146310486Y-132584056D01*
X146314951Y-132592820D01*
X146439890Y-132764786D01*
X146590213Y-132915109D01*
X146762179Y-133040048D01*
X146762181Y-133040049D01*
X146762184Y-133040051D01*
X146951588Y-133136557D01*
X147153757Y-133202246D01*
X147363713Y-133235500D01*
X147363714Y-133235500D01*
X147576286Y-133235500D01*
X147576287Y-133235500D01*
X147786243Y-133202246D01*
X147988412Y-133136557D01*
X148177816Y-133040051D01*
X148199789Y-133024086D01*
X148349786Y-132915109D01*
X148349788Y-132915106D01*
X148349792Y-132915104D01*
X148500104Y-132764792D01*
X148500106Y-132764788D01*
X148500109Y-132764786D01*
X148625048Y-132592820D01*
X148625047Y-132592820D01*
X148625051Y-132592816D01*
X148721557Y-132403412D01*
X148787246Y-132201243D01*
X148820500Y-131991287D01*
X148820500Y-131778713D01*
X148787246Y-131568757D01*
X148721557Y-131366588D01*
X148625051Y-131177184D01*
X148625049Y-131177181D01*
X148625048Y-131177179D01*
X148500109Y-131005213D01*
X148349786Y-130854890D01*
X148177820Y-130729951D01*
X148177115Y-130729591D01*
X148169054Y-130725485D01*
X148118259Y-130677512D01*
X148101463Y-130609692D01*
X148123999Y-130543556D01*
X148169054Y-130504515D01*
X148177816Y-130500051D01*
X148272454Y-130431293D01*
X148349786Y-130375109D01*
X148349788Y-130375106D01*
X148349792Y-130375104D01*
X148500104Y-130224792D01*
X148500106Y-130224788D01*
X148500109Y-130224786D01*
X148625048Y-130052820D01*
X148625047Y-130052820D01*
X148625051Y-130052816D01*
X148721557Y-129863412D01*
X148787246Y-129661243D01*
X148820500Y-129451287D01*
X148820500Y-129238713D01*
X148787246Y-129028757D01*
X148764195Y-128957816D01*
X148762201Y-128887977D01*
X148798281Y-128828144D01*
X148860982Y-128797316D01*
X148882127Y-128795500D01*
X151073331Y-128795500D01*
X151073347Y-128795501D01*
X151080943Y-128795501D01*
X151239054Y-128795501D01*
X151239057Y-128795501D01*
X151391785Y-128754577D01*
X151441904Y-128725639D01*
X151528716Y-128675520D01*
X151640520Y-128563716D01*
X151640520Y-128563714D01*
X151650728Y-128553507D01*
X151650729Y-128553504D01*
X152564662Y-127639572D01*
X152581255Y-127630511D01*
X152594865Y-127617380D01*
X152624362Y-127606973D01*
X152625983Y-127606089D01*
X152628149Y-127605638D01*
X152644788Y-127602328D01*
X152701309Y-127591085D01*
X152770899Y-127597312D01*
X152826077Y-127640174D01*
X152849322Y-127706064D01*
X152849500Y-127712702D01*
X152849500Y-169020500D01*
X152829815Y-169087539D01*
X152777011Y-169133294D01*
X152725500Y-169144500D01*
X113974500Y-169144500D01*
X113907461Y-169124815D01*
X113861706Y-169072011D01*
X113850500Y-169020500D01*
X113850500Y-72567135D01*
X120719500Y-72567135D01*
X120719500Y-74362870D01*
X120719501Y-74362876D01*
X120725908Y-74422483D01*
X120776202Y-74557328D01*
X120776206Y-74557335D01*
X120862452Y-74672544D01*
X120862455Y-74672547D01*
X120977664Y-74758793D01*
X120977671Y-74758797D01*
X121109082Y-74807810D01*
X121165016Y-74849681D01*
X121189433Y-74915145D01*
X121174582Y-74983418D01*
X121153431Y-75011673D01*
X121039889Y-75125215D01*
X120914951Y-75297179D01*
X120818444Y-75486585D01*
X120752753Y-75688760D01*
X120719500Y-75898713D01*
X120719500Y-76111286D01*
X120752753Y-76321239D01*
X120818444Y-76523414D01*
X120914951Y-76712820D01*
X121039890Y-76884786D01*
X121190213Y-77035109D01*
X121362182Y-77160050D01*
X121370946Y-77164516D01*
X121421742Y-77212491D01*
X121438536Y-77280312D01*
X121415998Y-77346447D01*
X121370946Y-77385484D01*
X121362182Y-77389949D01*
X121190213Y-77514890D01*
X121039890Y-77665213D01*
X120914951Y-77837179D01*
X120818444Y-78026585D01*
X120752753Y-78228760D01*
X120719500Y-78438713D01*
X120719500Y-78651286D01*
X120752753Y-78861239D01*
X120818444Y-79063414D01*
X120914951Y-79252820D01*
X121039890Y-79424786D01*
X121190213Y-79575109D01*
X121362182Y-79700050D01*
X121370946Y-79704516D01*
X121421742Y-79752491D01*
X121438536Y-79820312D01*
X121415998Y-79886447D01*
X121370946Y-79925484D01*
X121362182Y-79929949D01*
X121190213Y-80054890D01*
X121039890Y-80205213D01*
X120914951Y-80377179D01*
X120818444Y-80566585D01*
X120752753Y-80768760D01*
X120719500Y-80978713D01*
X120719500Y-81191286D01*
X120752753Y-81401239D01*
X120818444Y-81603414D01*
X120914951Y-81792820D01*
X121039890Y-81964786D01*
X121190213Y-82115109D01*
X121362182Y-82240050D01*
X121370946Y-82244516D01*
X121421742Y-82292491D01*
X121438536Y-82360312D01*
X121415998Y-82426447D01*
X121370946Y-82465484D01*
X121362182Y-82469949D01*
X121190213Y-82594890D01*
X121039890Y-82745213D01*
X120914951Y-82917179D01*
X120818444Y-83106585D01*
X120752753Y-83308760D01*
X120719500Y-83518713D01*
X120719500Y-83731286D01*
X120752753Y-83941239D01*
X120818444Y-84143414D01*
X120914951Y-84332820D01*
X121039890Y-84504786D01*
X121190213Y-84655109D01*
X121362182Y-84780050D01*
X121370946Y-84784516D01*
X121421742Y-84832491D01*
X121438536Y-84900312D01*
X121415998Y-84966447D01*
X121370946Y-85005484D01*
X121362182Y-85009949D01*
X121190213Y-85134890D01*
X121039890Y-85285213D01*
X120914951Y-85457179D01*
X120818444Y-85646585D01*
X120752753Y-85848760D01*
X120719500Y-86058713D01*
X120719500Y-86271286D01*
X120752753Y-86481239D01*
X120818444Y-86683414D01*
X120914951Y-86872820D01*
X121039890Y-87044786D01*
X121190213Y-87195109D01*
X121362182Y-87320050D01*
X121370946Y-87324516D01*
X121421742Y-87372491D01*
X121438536Y-87440312D01*
X121415998Y-87506447D01*
X121370946Y-87545484D01*
X121362182Y-87549949D01*
X121190213Y-87674890D01*
X121039890Y-87825213D01*
X120914951Y-87997179D01*
X120818444Y-88186585D01*
X120752753Y-88388760D01*
X120719500Y-88598713D01*
X120719500Y-88811286D01*
X120752753Y-89021239D01*
X120818444Y-89223414D01*
X120914951Y-89412820D01*
X121039890Y-89584786D01*
X121190213Y-89735109D01*
X121362182Y-89860050D01*
X121370946Y-89864516D01*
X121421742Y-89912491D01*
X121438536Y-89980312D01*
X121415998Y-90046447D01*
X121370946Y-90085484D01*
X121362182Y-90089949D01*
X121190213Y-90214890D01*
X121039890Y-90365213D01*
X120914951Y-90537179D01*
X120818444Y-90726585D01*
X120752753Y-90928760D01*
X120719500Y-91138713D01*
X120719500Y-91351286D01*
X120752753Y-91561239D01*
X120818444Y-91763414D01*
X120914951Y-91952820D01*
X121039890Y-92124786D01*
X121190213Y-92275109D01*
X121362182Y-92400050D01*
X121370946Y-92404516D01*
X121421742Y-92452491D01*
X121438536Y-92520312D01*
X121415998Y-92586447D01*
X121370946Y-92625484D01*
X121362182Y-92629949D01*
X121190213Y-92754890D01*
X121039890Y-92905213D01*
X120914951Y-93077179D01*
X120818444Y-93266585D01*
X120752753Y-93468760D01*
X120719500Y-93678713D01*
X120719500Y-93891286D01*
X120752753Y-94101239D01*
X120818444Y-94303414D01*
X120914951Y-94492820D01*
X121039890Y-94664786D01*
X121190213Y-94815109D01*
X121362182Y-94940050D01*
X121370946Y-94944516D01*
X121421742Y-94992491D01*
X121438536Y-95060312D01*
X121415998Y-95126447D01*
X121370946Y-95165484D01*
X121362182Y-95169949D01*
X121190213Y-95294890D01*
X121039890Y-95445213D01*
X120914951Y-95617179D01*
X120818444Y-95806585D01*
X120752753Y-96008760D01*
X120719500Y-96218713D01*
X120719500Y-96431286D01*
X120752753Y-96641239D01*
X120818444Y-96843414D01*
X120914951Y-97032820D01*
X121039890Y-97204786D01*
X121190213Y-97355109D01*
X121362182Y-97480050D01*
X121370946Y-97484516D01*
X121421742Y-97532491D01*
X121438536Y-97600312D01*
X121415998Y-97666447D01*
X121370946Y-97705484D01*
X121362182Y-97709949D01*
X121190213Y-97834890D01*
X121039890Y-97985213D01*
X120914951Y-98157179D01*
X120818444Y-98346585D01*
X120752753Y-98548760D01*
X120719500Y-98758713D01*
X120719500Y-98971286D01*
X120752753Y-99181239D01*
X120818444Y-99383414D01*
X120914951Y-99572820D01*
X121039890Y-99744786D01*
X121190213Y-99895109D01*
X121362182Y-100020050D01*
X121370946Y-100024516D01*
X121421742Y-100072491D01*
X121438536Y-100140312D01*
X121415998Y-100206447D01*
X121370946Y-100245484D01*
X121362182Y-100249949D01*
X121190213Y-100374890D01*
X121039890Y-100525213D01*
X120914951Y-100697179D01*
X120818444Y-100886585D01*
X120752753Y-101088760D01*
X120739649Y-101171498D01*
X120719500Y-101298713D01*
X120719500Y-101511287D01*
X120752754Y-101721243D01*
X120804338Y-101880002D01*
X120818444Y-101923414D01*
X120914951Y-102112820D01*
X121039890Y-102284786D01*
X121190213Y-102435109D01*
X121362182Y-102560050D01*
X121370946Y-102564516D01*
X121421742Y-102612491D01*
X121438536Y-102680312D01*
X121415998Y-102746447D01*
X121370946Y-102785484D01*
X121362182Y-102789949D01*
X121190213Y-102914890D01*
X121039890Y-103065213D01*
X120914951Y-103237179D01*
X120818444Y-103426585D01*
X120752753Y-103628760D01*
X120719500Y-103838713D01*
X120719500Y-104051287D01*
X120752754Y-104261243D01*
X120786775Y-104365949D01*
X120818444Y-104463414D01*
X120914951Y-104652820D01*
X121039890Y-104824786D01*
X121190213Y-104975109D01*
X121362179Y-105100048D01*
X121362181Y-105100049D01*
X121362184Y-105100051D01*
X121551588Y-105196557D01*
X121753757Y-105262246D01*
X121963713Y-105295500D01*
X121963714Y-105295500D01*
X122176286Y-105295500D01*
X122176287Y-105295500D01*
X122386243Y-105262246D01*
X122588412Y-105196557D01*
X122777816Y-105100051D01*
X122878502Y-105026899D01*
X122949786Y-104975109D01*
X122949788Y-104975106D01*
X122949792Y-104975104D01*
X123100104Y-104824792D01*
X123100106Y-104824788D01*
X123100109Y-104824786D01*
X123225048Y-104652820D01*
X123225047Y-104652820D01*
X123225051Y-104652816D01*
X123321557Y-104463412D01*
X123387246Y-104261243D01*
X123420500Y-104051287D01*
X123420500Y-103838713D01*
X123387246Y-103628757D01*
X123321557Y-103426588D01*
X123225051Y-103237184D01*
X123225049Y-103237181D01*
X123225048Y-103237179D01*
X123100109Y-103065213D01*
X122949786Y-102914890D01*
X122777820Y-102789951D01*
X122777115Y-102789591D01*
X122769054Y-102785485D01*
X122718259Y-102737512D01*
X122701463Y-102669692D01*
X122723999Y-102603556D01*
X122769054Y-102564515D01*
X122777816Y-102560051D01*
X122799789Y-102544086D01*
X122949786Y-102435109D01*
X122949788Y-102435106D01*
X122949792Y-102435104D01*
X123100104Y-102284792D01*
X123100106Y-102284788D01*
X123100109Y-102284786D01*
X123225048Y-102112820D01*
X123225047Y-102112820D01*
X123225051Y-102112816D01*
X123321557Y-101923412D01*
X123387246Y-101721243D01*
X123420500Y-101511287D01*
X123420500Y-101298713D01*
X123387246Y-101088757D01*
X123321557Y-100886588D01*
X123225051Y-100697184D01*
X123225049Y-100697181D01*
X123225048Y-100697179D01*
X123100109Y-100525213D01*
X122949786Y-100374890D01*
X122777820Y-100249951D01*
X122776711Y-100249386D01*
X122769054Y-100245485D01*
X122718259Y-100197512D01*
X122701463Y-100129692D01*
X122723999Y-100063556D01*
X122769054Y-100024515D01*
X122777816Y-100020051D01*
X122799789Y-100004086D01*
X122949786Y-99895109D01*
X122949788Y-99895106D01*
X122949792Y-99895104D01*
X123100104Y-99744792D01*
X123100106Y-99744788D01*
X123100109Y-99744786D01*
X123225048Y-99572820D01*
X123225047Y-99572820D01*
X123225051Y-99572816D01*
X123321557Y-99383412D01*
X123387246Y-99181243D01*
X123420500Y-98971287D01*
X123420500Y-98758713D01*
X123387246Y-98548757D01*
X123321557Y-98346588D01*
X123225051Y-98157184D01*
X123225049Y-98157181D01*
X123225048Y-98157179D01*
X123100109Y-97985213D01*
X122949786Y-97834890D01*
X122777820Y-97709951D01*
X122777115Y-97709591D01*
X122769054Y-97705485D01*
X122718259Y-97657512D01*
X122701463Y-97589692D01*
X122723999Y-97523556D01*
X122769054Y-97484515D01*
X122777816Y-97480051D01*
X122799789Y-97464086D01*
X122949786Y-97355109D01*
X122949788Y-97355106D01*
X122949792Y-97355104D01*
X123100104Y-97204792D01*
X123100106Y-97204788D01*
X123100109Y-97204786D01*
X123225048Y-97032820D01*
X123225047Y-97032820D01*
X123225051Y-97032816D01*
X123321557Y-96843412D01*
X123387246Y-96641243D01*
X123420500Y-96431287D01*
X123420500Y-96218713D01*
X123387246Y-96008757D01*
X123321557Y-95806588D01*
X123225051Y-95617184D01*
X123225049Y-95617181D01*
X123225048Y-95617179D01*
X123100109Y-95445213D01*
X122949786Y-95294890D01*
X122777820Y-95169951D01*
X122777115Y-95169591D01*
X122769054Y-95165485D01*
X122718259Y-95117512D01*
X122701463Y-95049692D01*
X122723999Y-94983556D01*
X122769054Y-94944515D01*
X122777816Y-94940051D01*
X122799789Y-94924086D01*
X122949786Y-94815109D01*
X122949788Y-94815106D01*
X122949792Y-94815104D01*
X123100104Y-94664792D01*
X123100106Y-94664788D01*
X123100109Y-94664786D01*
X123225048Y-94492820D01*
X123225047Y-94492820D01*
X123225051Y-94492816D01*
X123321557Y-94303412D01*
X123387246Y-94101243D01*
X123420500Y-93891287D01*
X123420500Y-93678713D01*
X123387246Y-93468757D01*
X123321557Y-93266588D01*
X123225051Y-93077184D01*
X123225049Y-93077181D01*
X123225048Y-93077179D01*
X123100109Y-92905213D01*
X122949786Y-92754890D01*
X122777820Y-92629951D01*
X122777115Y-92629591D01*
X122769054Y-92625485D01*
X122718259Y-92577512D01*
X122701463Y-92509692D01*
X122723999Y-92443556D01*
X122769054Y-92404515D01*
X122777816Y-92400051D01*
X122833552Y-92359557D01*
X122949786Y-92275109D01*
X122949788Y-92275106D01*
X122949792Y-92275104D01*
X123100104Y-92124792D01*
X123100106Y-92124788D01*
X123100109Y-92124786D01*
X123225048Y-91952820D01*
X123225047Y-91952820D01*
X123225051Y-91952816D01*
X123321557Y-91763412D01*
X123387246Y-91561243D01*
X123420500Y-91351287D01*
X123420500Y-91138713D01*
X123387246Y-90928757D01*
X123321557Y-90726588D01*
X123225051Y-90537184D01*
X123225049Y-90537181D01*
X123225048Y-90537179D01*
X123100109Y-90365213D01*
X122949786Y-90214890D01*
X122777820Y-90089951D01*
X122777115Y-90089591D01*
X122769054Y-90085485D01*
X122718259Y-90037512D01*
X122701463Y-89969692D01*
X122723999Y-89903556D01*
X122769054Y-89864515D01*
X122777816Y-89860051D01*
X122799789Y-89844086D01*
X122949786Y-89735109D01*
X122949788Y-89735106D01*
X122949792Y-89735104D01*
X123100104Y-89584792D01*
X123100106Y-89584788D01*
X123100109Y-89584786D01*
X123225048Y-89412820D01*
X123225047Y-89412820D01*
X123225051Y-89412816D01*
X123321557Y-89223412D01*
X123387246Y-89021243D01*
X123420500Y-88811287D01*
X123420500Y-88598713D01*
X123387246Y-88388757D01*
X123321557Y-88186588D01*
X123225051Y-87997184D01*
X123225049Y-87997181D01*
X123225048Y-87997179D01*
X123100109Y-87825213D01*
X122949786Y-87674890D01*
X122777820Y-87549951D01*
X122777115Y-87549591D01*
X122769054Y-87545485D01*
X122718259Y-87497512D01*
X122701463Y-87429692D01*
X122723999Y-87363556D01*
X122769054Y-87324515D01*
X122777816Y-87320051D01*
X122799789Y-87304086D01*
X122949786Y-87195109D01*
X122949788Y-87195106D01*
X122949792Y-87195104D01*
X123100104Y-87044792D01*
X123100106Y-87044788D01*
X123100109Y-87044786D01*
X123225048Y-86872820D01*
X123225047Y-86872820D01*
X123225051Y-86872816D01*
X123321557Y-86683412D01*
X123387246Y-86481243D01*
X123420500Y-86271287D01*
X123420500Y-86058713D01*
X123387246Y-85848757D01*
X123321557Y-85646588D01*
X123225051Y-85457184D01*
X123225049Y-85457181D01*
X123225048Y-85457179D01*
X123100109Y-85285213D01*
X122949786Y-85134890D01*
X122777820Y-85009951D01*
X122777115Y-85009591D01*
X122769054Y-85005485D01*
X122718259Y-84957512D01*
X122701463Y-84889692D01*
X122723999Y-84823556D01*
X122769054Y-84784515D01*
X122777816Y-84780051D01*
X122799789Y-84764086D01*
X122949786Y-84655109D01*
X122949788Y-84655106D01*
X122949792Y-84655104D01*
X123100104Y-84504792D01*
X123100106Y-84504788D01*
X123100109Y-84504786D01*
X123225048Y-84332820D01*
X123225047Y-84332820D01*
X123225051Y-84332816D01*
X123321557Y-84143412D01*
X123387246Y-83941243D01*
X123420500Y-83731287D01*
X123420500Y-83518713D01*
X123387246Y-83308757D01*
X123321557Y-83106588D01*
X123225051Y-82917184D01*
X123225049Y-82917181D01*
X123225048Y-82917179D01*
X123100109Y-82745213D01*
X122949786Y-82594890D01*
X122777820Y-82469951D01*
X122777115Y-82469591D01*
X122769054Y-82465485D01*
X122718259Y-82417512D01*
X122701463Y-82349692D01*
X122723999Y-82283556D01*
X122769054Y-82244515D01*
X122777816Y-82240051D01*
X122799789Y-82224086D01*
X122949786Y-82115109D01*
X122949788Y-82115106D01*
X122949792Y-82115104D01*
X123100104Y-81964792D01*
X123100106Y-81964788D01*
X123100109Y-81964786D01*
X123225048Y-81792820D01*
X123225047Y-81792820D01*
X123225051Y-81792816D01*
X123321557Y-81603412D01*
X123387246Y-81401243D01*
X123420500Y-81191287D01*
X123420500Y-80978713D01*
X123387246Y-80768757D01*
X123321557Y-80566588D01*
X123225051Y-80377184D01*
X123225049Y-80377181D01*
X123225048Y-80377179D01*
X123100109Y-80205213D01*
X122949786Y-80054890D01*
X122777820Y-79929951D01*
X122777115Y-79929591D01*
X122769054Y-79925485D01*
X122718259Y-79877512D01*
X122701463Y-79809692D01*
X122723999Y-79743556D01*
X122769054Y-79704515D01*
X122777816Y-79700051D01*
X122799789Y-79684086D01*
X122949786Y-79575109D01*
X122949788Y-79575106D01*
X122949792Y-79575104D01*
X123100104Y-79424792D01*
X123100106Y-79424788D01*
X123100109Y-79424786D01*
X123225048Y-79252820D01*
X123225047Y-79252820D01*
X123225051Y-79252816D01*
X123321557Y-79063412D01*
X123387246Y-78861243D01*
X123420500Y-78651287D01*
X123420500Y-78438713D01*
X123387246Y-78228757D01*
X123321557Y-78026588D01*
X123225051Y-77837184D01*
X123225049Y-77837181D01*
X123225048Y-77837179D01*
X123100109Y-77665213D01*
X122949786Y-77514890D01*
X122777820Y-77389951D01*
X122777115Y-77389591D01*
X122769054Y-77385485D01*
X122718259Y-77337512D01*
X122701463Y-77269692D01*
X122723999Y-77203556D01*
X122769054Y-77164515D01*
X122777816Y-77160051D01*
X122799789Y-77144086D01*
X122949786Y-77035109D01*
X122949788Y-77035106D01*
X122949792Y-77035104D01*
X123100104Y-76884792D01*
X123100106Y-76884788D01*
X123100109Y-76884786D01*
X123225048Y-76712820D01*
X123225047Y-76712820D01*
X123225051Y-76712816D01*
X123321557Y-76523412D01*
X123387246Y-76321243D01*
X123420500Y-76111287D01*
X123420500Y-75898713D01*
X142719500Y-75898713D01*
X142719500Y-76111286D01*
X142752753Y-76321239D01*
X142818444Y-76523414D01*
X142914951Y-76712820D01*
X143039890Y-76884786D01*
X143190213Y-77035109D01*
X143362182Y-77160050D01*
X143370946Y-77164516D01*
X143421742Y-77212491D01*
X143438536Y-77280312D01*
X143415998Y-77346447D01*
X143370946Y-77385484D01*
X143362182Y-77389949D01*
X143190213Y-77514890D01*
X143039890Y-77665213D01*
X142914951Y-77837179D01*
X142818444Y-78026585D01*
X142752753Y-78228760D01*
X142719500Y-78438713D01*
X142719500Y-78651286D01*
X142752753Y-78861239D01*
X142818444Y-79063414D01*
X142914951Y-79252820D01*
X143039890Y-79424786D01*
X143190213Y-79575109D01*
X143362182Y-79700050D01*
X143370946Y-79704516D01*
X143421742Y-79752491D01*
X143438536Y-79820312D01*
X143415998Y-79886447D01*
X143370946Y-79925484D01*
X143362182Y-79929949D01*
X143190213Y-80054890D01*
X143039890Y-80205213D01*
X142914951Y-80377179D01*
X142818444Y-80566585D01*
X142752753Y-80768760D01*
X142719500Y-80978713D01*
X142719500Y-81191286D01*
X142752753Y-81401239D01*
X142818444Y-81603414D01*
X142914951Y-81792820D01*
X143039890Y-81964786D01*
X143190213Y-82115109D01*
X143362182Y-82240050D01*
X143370946Y-82244516D01*
X143421742Y-82292491D01*
X143438536Y-82360312D01*
X143415998Y-82426447D01*
X143370946Y-82465484D01*
X143362182Y-82469949D01*
X143190213Y-82594890D01*
X143039890Y-82745213D01*
X142914951Y-82917179D01*
X142818444Y-83106585D01*
X142752753Y-83308760D01*
X142719500Y-83518713D01*
X142719500Y-83731286D01*
X142752753Y-83941239D01*
X142818444Y-84143414D01*
X142914951Y-84332820D01*
X143039890Y-84504786D01*
X143190213Y-84655109D01*
X143362182Y-84780050D01*
X143370946Y-84784516D01*
X143421742Y-84832491D01*
X143438536Y-84900312D01*
X143415998Y-84966447D01*
X143370946Y-85005484D01*
X143362182Y-85009949D01*
X143190213Y-85134890D01*
X143039890Y-85285213D01*
X142914951Y-85457179D01*
X142818444Y-85646585D01*
X142752753Y-85848760D01*
X142719500Y-86058713D01*
X142719500Y-86271286D01*
X142752753Y-86481239D01*
X142818444Y-86683414D01*
X142914951Y-86872820D01*
X143039890Y-87044786D01*
X143190213Y-87195109D01*
X143362179Y-87320048D01*
X143362181Y-87320049D01*
X143362184Y-87320051D01*
X143551588Y-87416557D01*
X143753757Y-87482246D01*
X143963713Y-87515500D01*
X143963714Y-87515500D01*
X144176286Y-87515500D01*
X144176287Y-87515500D01*
X144386243Y-87482246D01*
X144588412Y-87416557D01*
X144777816Y-87320051D01*
X144799789Y-87304086D01*
X144949786Y-87195109D01*
X144949788Y-87195106D01*
X144949792Y-87195104D01*
X145100104Y-87044792D01*
X145100106Y-87044788D01*
X145100109Y-87044786D01*
X145225048Y-86872820D01*
X145225047Y-86872820D01*
X145225051Y-86872816D01*
X145321557Y-86683412D01*
X145387246Y-86481243D01*
X145420500Y-86271287D01*
X145420500Y-86058713D01*
X145387246Y-85848757D01*
X145321557Y-85646588D01*
X145225051Y-85457184D01*
X145225049Y-85457181D01*
X145225048Y-85457179D01*
X145100109Y-85285213D01*
X144949786Y-85134890D01*
X144777820Y-85009951D01*
X144777115Y-85009591D01*
X144769054Y-85005485D01*
X144718259Y-84957512D01*
X144701463Y-84889692D01*
X144723999Y-84823556D01*
X144769054Y-84784515D01*
X144777816Y-84780051D01*
X144799789Y-84764086D01*
X144949786Y-84655109D01*
X144949788Y-84655106D01*
X144949792Y-84655104D01*
X145100104Y-84504792D01*
X145100106Y-84504788D01*
X145100109Y-84504786D01*
X145225048Y-84332820D01*
X145225047Y-84332820D01*
X145225051Y-84332816D01*
X145321557Y-84143412D01*
X145387246Y-83941243D01*
X145420500Y-83731287D01*
X145420500Y-83518713D01*
X145387246Y-83308757D01*
X145321557Y-83106588D01*
X145225051Y-82917184D01*
X145225049Y-82917181D01*
X145225048Y-82917179D01*
X145100109Y-82745213D01*
X144949786Y-82594890D01*
X144777820Y-82469951D01*
X144777115Y-82469591D01*
X144769054Y-82465485D01*
X144718259Y-82417512D01*
X144701463Y-82349692D01*
X144723999Y-82283556D01*
X144769054Y-82244515D01*
X144777816Y-82240051D01*
X144799789Y-82224086D01*
X144949786Y-82115109D01*
X144949788Y-82115106D01*
X144949792Y-82115104D01*
X145100104Y-81964792D01*
X145100106Y-81964788D01*
X145100109Y-81964786D01*
X145225048Y-81792820D01*
X145225047Y-81792820D01*
X145225051Y-81792816D01*
X145321557Y-81603412D01*
X145387246Y-81401243D01*
X145420500Y-81191287D01*
X145420500Y-80978713D01*
X145387246Y-80768757D01*
X145321557Y-80566588D01*
X145225051Y-80377184D01*
X145225049Y-80377181D01*
X145225048Y-80377179D01*
X145100109Y-80205213D01*
X144949786Y-80054890D01*
X144777820Y-79929951D01*
X144777115Y-79929591D01*
X144769054Y-79925485D01*
X144718259Y-79877512D01*
X144701463Y-79809692D01*
X144723999Y-79743556D01*
X144769054Y-79704515D01*
X144777816Y-79700051D01*
X144799789Y-79684086D01*
X144949786Y-79575109D01*
X144949788Y-79575106D01*
X144949792Y-79575104D01*
X145100104Y-79424792D01*
X145100106Y-79424788D01*
X145100109Y-79424786D01*
X145225048Y-79252820D01*
X145225047Y-79252820D01*
X145225051Y-79252816D01*
X145321557Y-79063412D01*
X145387246Y-78861243D01*
X145420500Y-78651287D01*
X145420500Y-78438713D01*
X145387246Y-78228757D01*
X145321557Y-78026588D01*
X145225051Y-77837184D01*
X145225049Y-77837181D01*
X145225048Y-77837179D01*
X145100109Y-77665213D01*
X144949786Y-77514890D01*
X144777820Y-77389951D01*
X144777115Y-77389591D01*
X144769054Y-77385485D01*
X144718259Y-77337512D01*
X144701463Y-77269692D01*
X144723999Y-77203556D01*
X144769054Y-77164515D01*
X144777816Y-77160051D01*
X144799789Y-77144086D01*
X144949786Y-77035109D01*
X144949788Y-77035106D01*
X144949792Y-77035104D01*
X145100104Y-76884792D01*
X145100106Y-76884788D01*
X145100109Y-76884786D01*
X145225048Y-76712820D01*
X145225047Y-76712820D01*
X145225051Y-76712816D01*
X145321557Y-76523412D01*
X145387246Y-76321243D01*
X145420500Y-76111287D01*
X145420500Y-75898713D01*
X145387246Y-75688757D01*
X145321557Y-75486588D01*
X145225051Y-75297184D01*
X145225049Y-75297181D01*
X145225048Y-75297179D01*
X145100109Y-75125213D01*
X144949786Y-74974890D01*
X144777820Y-74849951D01*
X144588414Y-74753444D01*
X144588413Y-74753443D01*
X144588412Y-74753443D01*
X144386243Y-74687754D01*
X144386241Y-74687753D01*
X144386240Y-74687753D01*
X144224957Y-74662208D01*
X144176287Y-74654500D01*
X143963713Y-74654500D01*
X143915042Y-74662208D01*
X143753760Y-74687753D01*
X143551585Y-74753444D01*
X143362179Y-74849951D01*
X143190213Y-74974890D01*
X143039890Y-75125213D01*
X142914951Y-75297179D01*
X142818444Y-75486585D01*
X142752753Y-75688760D01*
X142719500Y-75898713D01*
X123420500Y-75898713D01*
X123387246Y-75688757D01*
X123321557Y-75486588D01*
X123225051Y-75297184D01*
X123225049Y-75297181D01*
X123225048Y-75297179D01*
X123100109Y-75125213D01*
X122986569Y-75011673D01*
X122953084Y-74950350D01*
X122958068Y-74880658D01*
X122999940Y-74824725D01*
X123030915Y-74807810D01*
X123162331Y-74758796D01*
X123277546Y-74672546D01*
X123363796Y-74557331D01*
X123414091Y-74422483D01*
X123420500Y-74362873D01*
X123420499Y-72567128D01*
X123414091Y-72507517D01*
X123363796Y-72372669D01*
X123363795Y-72372668D01*
X123363793Y-72372664D01*
X123277547Y-72257455D01*
X123277544Y-72257452D01*
X123162335Y-72171206D01*
X123162328Y-72171202D01*
X123027482Y-72120908D01*
X123027483Y-72120908D01*
X122967883Y-72114501D01*
X122967881Y-72114500D01*
X122967873Y-72114500D01*
X122967864Y-72114500D01*
X121172129Y-72114500D01*
X121172123Y-72114501D01*
X121112516Y-72120908D01*
X120977671Y-72171202D01*
X120977664Y-72171206D01*
X120862455Y-72257452D01*
X120862452Y-72257455D01*
X120776206Y-72372664D01*
X120776202Y-72372671D01*
X120725908Y-72507517D01*
X120719501Y-72567116D01*
X120719501Y-72567123D01*
X120719500Y-72567135D01*
X113850500Y-72567135D01*
X113850500Y-65750513D01*
X128339500Y-65750513D01*
X128339500Y-65939486D01*
X128369059Y-66126118D01*
X128427454Y-66305836D01*
X128513240Y-66474199D01*
X128624310Y-66627073D01*
X128757927Y-66760690D01*
X128910801Y-66871760D01*
X128990347Y-66912290D01*
X129079163Y-66957545D01*
X129079165Y-66957545D01*
X129079168Y-66957547D01*
X129175497Y-66988846D01*
X129258881Y-67015940D01*
X129445514Y-67045500D01*
X129445519Y-67045500D01*
X129634486Y-67045500D01*
X129821118Y-67015940D01*
X130000832Y-66957547D01*
X130169199Y-66871760D01*
X130322073Y-66760690D01*
X130455690Y-66627073D01*
X130566760Y-66474199D01*
X130652547Y-66305832D01*
X130710940Y-66126118D01*
X130740500Y-65939486D01*
X130740500Y-65750513D01*
X135959500Y-65750513D01*
X135959500Y-65939486D01*
X135989059Y-66126118D01*
X136047454Y-66305836D01*
X136133240Y-66474199D01*
X136244310Y-66627073D01*
X136377927Y-66760690D01*
X136530801Y-66871760D01*
X136610347Y-66912290D01*
X136699163Y-66957545D01*
X136699165Y-66957545D01*
X136699168Y-66957547D01*
X136795497Y-66988846D01*
X136878881Y-67015940D01*
X137065514Y-67045500D01*
X137065519Y-67045500D01*
X137254486Y-67045500D01*
X137441118Y-67015940D01*
X137620832Y-66957547D01*
X137789199Y-66871760D01*
X137942073Y-66760690D01*
X138075690Y-66627073D01*
X138186760Y-66474199D01*
X138272547Y-66305832D01*
X138330940Y-66126118D01*
X138360500Y-65939486D01*
X138360500Y-65750513D01*
X139919500Y-65750513D01*
X139919500Y-65939486D01*
X139949059Y-66126118D01*
X140007454Y-66305836D01*
X140093240Y-66474199D01*
X140204310Y-66627073D01*
X140337927Y-66760690D01*
X140490801Y-66871760D01*
X140570347Y-66912290D01*
X140659163Y-66957545D01*
X140659165Y-66957545D01*
X140659168Y-66957547D01*
X140755497Y-66988846D01*
X140838881Y-67015940D01*
X141025514Y-67045500D01*
X141025519Y-67045500D01*
X141214486Y-67045500D01*
X141401118Y-67015940D01*
X141580832Y-66957547D01*
X141749199Y-66871760D01*
X141902073Y-66760690D01*
X142035690Y-66627073D01*
X142146760Y-66474199D01*
X142232547Y-66305832D01*
X142290940Y-66126118D01*
X142320500Y-65939486D01*
X142320500Y-65750513D01*
X147539500Y-65750513D01*
X147539500Y-65939486D01*
X147569059Y-66126118D01*
X147627454Y-66305836D01*
X147713240Y-66474199D01*
X147824310Y-66627073D01*
X147957927Y-66760690D01*
X148110801Y-66871760D01*
X148190347Y-66912290D01*
X148279163Y-66957545D01*
X148279165Y-66957545D01*
X148279168Y-66957547D01*
X148375497Y-66988846D01*
X148458881Y-67015940D01*
X148645514Y-67045500D01*
X148645519Y-67045500D01*
X148834486Y-67045500D01*
X149021118Y-67015940D01*
X149200832Y-66957547D01*
X149369199Y-66871760D01*
X149522073Y-66760690D01*
X149655690Y-66627073D01*
X149766760Y-66474199D01*
X149852547Y-66305832D01*
X149910940Y-66126118D01*
X149940500Y-65939486D01*
X149940500Y-65750513D01*
X149910940Y-65563881D01*
X149852545Y-65384163D01*
X149766759Y-65215800D01*
X149655690Y-65062927D01*
X149522073Y-64929310D01*
X149369199Y-64818240D01*
X149200836Y-64732454D01*
X149021118Y-64674059D01*
X148834486Y-64644500D01*
X148834481Y-64644500D01*
X148645519Y-64644500D01*
X148645514Y-64644500D01*
X148458881Y-64674059D01*
X148279163Y-64732454D01*
X148110800Y-64818240D01*
X148023579Y-64881610D01*
X147957927Y-64929310D01*
X147957925Y-64929312D01*
X147957924Y-64929312D01*
X147824312Y-65062924D01*
X147824312Y-65062925D01*
X147824310Y-65062927D01*
X147776610Y-65128579D01*
X147713240Y-65215800D01*
X147627454Y-65384163D01*
X147569059Y-65563881D01*
X147539500Y-65750513D01*
X142320500Y-65750513D01*
X142290940Y-65563881D01*
X142232545Y-65384163D01*
X142146759Y-65215800D01*
X142035690Y-65062927D01*
X141902073Y-64929310D01*
X141749199Y-64818240D01*
X141580836Y-64732454D01*
X141401118Y-64674059D01*
X141214486Y-64644500D01*
X141214481Y-64644500D01*
X141025519Y-64644500D01*
X141025514Y-64644500D01*
X140838881Y-64674059D01*
X140659163Y-64732454D01*
X140490800Y-64818240D01*
X140403579Y-64881610D01*
X140337927Y-64929310D01*
X140337925Y-64929312D01*
X140337924Y-64929312D01*
X140204312Y-65062924D01*
X140204312Y-65062925D01*
X140204310Y-65062927D01*
X140156610Y-65128579D01*
X140093240Y-65215800D01*
X140007454Y-65384163D01*
X139949059Y-65563881D01*
X139919500Y-65750513D01*
X138360500Y-65750513D01*
X138330940Y-65563881D01*
X138272545Y-65384163D01*
X138186759Y-65215800D01*
X138075690Y-65062927D01*
X137942073Y-64929310D01*
X137789199Y-64818240D01*
X137620836Y-64732454D01*
X137441118Y-64674059D01*
X137254486Y-64644500D01*
X137254481Y-64644500D01*
X137065519Y-64644500D01*
X137065514Y-64644500D01*
X136878881Y-64674059D01*
X136699163Y-64732454D01*
X136530800Y-64818240D01*
X136443579Y-64881610D01*
X136377927Y-64929310D01*
X136377925Y-64929312D01*
X136377924Y-64929312D01*
X136244312Y-65062924D01*
X136244312Y-65062925D01*
X136244310Y-65062927D01*
X136196610Y-65128579D01*
X136133240Y-65215800D01*
X136047454Y-65384163D01*
X135989059Y-65563881D01*
X135959500Y-65750513D01*
X130740500Y-65750513D01*
X130710940Y-65563881D01*
X130652545Y-65384163D01*
X130566759Y-65215800D01*
X130455690Y-65062927D01*
X130322073Y-64929310D01*
X130169199Y-64818240D01*
X130000836Y-64732454D01*
X129821118Y-64674059D01*
X129634486Y-64644500D01*
X129634481Y-64644500D01*
X129445519Y-64644500D01*
X129445514Y-64644500D01*
X129258881Y-64674059D01*
X129079163Y-64732454D01*
X128910800Y-64818240D01*
X128823579Y-64881610D01*
X128757927Y-64929310D01*
X128757925Y-64929312D01*
X128757924Y-64929312D01*
X128624312Y-65062924D01*
X128624312Y-65062925D01*
X128624310Y-65062927D01*
X128576610Y-65128579D01*
X128513240Y-65215800D01*
X128427454Y-65384163D01*
X128369059Y-65563881D01*
X128339500Y-65750513D01*
X113850500Y-65750513D01*
X113850500Y-57624983D01*
X118269500Y-57624983D01*
X118269500Y-58825001D01*
X118269501Y-58825018D01*
X118280000Y-58927796D01*
X118280001Y-58927799D01*
X118335185Y-59094331D01*
X118335186Y-59094334D01*
X118427288Y-59243656D01*
X118551344Y-59367712D01*
X118700666Y-59459814D01*
X118867203Y-59514999D01*
X118969991Y-59525500D01*
X120170008Y-59525499D01*
X120272797Y-59514999D01*
X120439334Y-59459814D01*
X120588656Y-59367712D01*
X120712712Y-59243656D01*
X120804814Y-59094334D01*
X120859999Y-58927797D01*
X120870500Y-58825009D01*
X120870499Y-57624992D01*
X120859999Y-57522203D01*
X120804814Y-57355666D01*
X120712712Y-57206344D01*
X120588656Y-57082288D01*
X120588655Y-57082287D01*
X120510065Y-57033813D01*
X120439334Y-56990186D01*
X120272797Y-56935001D01*
X120272795Y-56935000D01*
X120254646Y-56933146D01*
X131897000Y-56933146D01*
X131897000Y-57256853D01*
X131932778Y-57482746D01*
X131932778Y-57482749D01*
X132003450Y-57700255D01*
X132003452Y-57700258D01*
X132107283Y-57904038D01*
X132241714Y-58089066D01*
X132403434Y-58250786D01*
X132588462Y-58385217D01*
X132792242Y-58489048D01*
X132792244Y-58489049D01*
X133009751Y-58559721D01*
X133009752Y-58559721D01*
X133009755Y-58559722D01*
X133235646Y-58595500D01*
X133235647Y-58595500D01*
X133464353Y-58595500D01*
X133464354Y-58595500D01*
X133690245Y-58559722D01*
X133690248Y-58559721D01*
X133690249Y-58559721D01*
X133907755Y-58489049D01*
X133907755Y-58489048D01*
X133907758Y-58489048D01*
X134111538Y-58385217D01*
X134296566Y-58250786D01*
X134458286Y-58089066D01*
X134519683Y-58004559D01*
X134575012Y-57961896D01*
X134644625Y-57955917D01*
X134706420Y-57988523D01*
X134720314Y-58004556D01*
X134781714Y-58089066D01*
X134943434Y-58250786D01*
X135128462Y-58385217D01*
X135332242Y-58489048D01*
X135332244Y-58489049D01*
X135549751Y-58559721D01*
X135549752Y-58559721D01*
X135549755Y-58559722D01*
X135775646Y-58595500D01*
X135775647Y-58595500D01*
X136004353Y-58595500D01*
X136004354Y-58595500D01*
X136230245Y-58559722D01*
X136230248Y-58559721D01*
X136230249Y-58559721D01*
X136447755Y-58489049D01*
X136447755Y-58489048D01*
X136447758Y-58489048D01*
X136651538Y-58385217D01*
X136836566Y-58250786D01*
X136998286Y-58089066D01*
X137132717Y-57904038D01*
X137236548Y-57700258D01*
X137236549Y-57700255D01*
X137261006Y-57624983D01*
X143669500Y-57624983D01*
X143669500Y-58825001D01*
X143669501Y-58825018D01*
X143680000Y-58927796D01*
X143680001Y-58927799D01*
X143735185Y-59094331D01*
X143735186Y-59094334D01*
X143827288Y-59243656D01*
X143951344Y-59367712D01*
X144100666Y-59459814D01*
X144267203Y-59514999D01*
X144369991Y-59525500D01*
X145570008Y-59525499D01*
X145672797Y-59514999D01*
X145839334Y-59459814D01*
X145988656Y-59367712D01*
X146112712Y-59243656D01*
X146204814Y-59094334D01*
X146259999Y-58927797D01*
X146270500Y-58825009D01*
X146270499Y-57624992D01*
X146259999Y-57522203D01*
X146204814Y-57355666D01*
X146112712Y-57206344D01*
X145988656Y-57082288D01*
X145839334Y-56990186D01*
X145672797Y-56935001D01*
X145672795Y-56935000D01*
X145570010Y-56924500D01*
X144369998Y-56924500D01*
X144369981Y-56924501D01*
X144267203Y-56935000D01*
X144267200Y-56935001D01*
X144100668Y-56990185D01*
X144100663Y-56990187D01*
X143951342Y-57082289D01*
X143827289Y-57206342D01*
X143735187Y-57355663D01*
X143735186Y-57355666D01*
X143680001Y-57522203D01*
X143680001Y-57522204D01*
X143680000Y-57522204D01*
X143669500Y-57624983D01*
X137261006Y-57624983D01*
X137274480Y-57583516D01*
X137307221Y-57482749D01*
X137307221Y-57482748D01*
X137307222Y-57482745D01*
X137343000Y-57256854D01*
X137343000Y-56933146D01*
X137307222Y-56707255D01*
X137307221Y-56707251D01*
X137307221Y-56707250D01*
X137236549Y-56489744D01*
X137236548Y-56489742D01*
X137132717Y-56285962D01*
X136998286Y-56100934D01*
X136836566Y-55939214D01*
X136651538Y-55804783D01*
X136447755Y-55700950D01*
X136230248Y-55630278D01*
X136060826Y-55603444D01*
X136004354Y-55594500D01*
X135775646Y-55594500D01*
X135700349Y-55606426D01*
X135549753Y-55630278D01*
X135549750Y-55630278D01*
X135332244Y-55700950D01*
X135128461Y-55804783D01*
X135022896Y-55881480D01*
X134943434Y-55939214D01*
X134943432Y-55939216D01*
X134943431Y-55939216D01*
X134781715Y-56100932D01*
X134720318Y-56185438D01*
X134664987Y-56228103D01*
X134595374Y-56234082D01*
X134533579Y-56201476D01*
X134519682Y-56185438D01*
X134508773Y-56170423D01*
X134458286Y-56100934D01*
X134296566Y-55939214D01*
X134111538Y-55804783D01*
X133907755Y-55700950D01*
X133690248Y-55630278D01*
X133520826Y-55603444D01*
X133464354Y-55594500D01*
X133235646Y-55594500D01*
X133160349Y-55606426D01*
X133009753Y-55630278D01*
X133009750Y-55630278D01*
X132792244Y-55700950D01*
X132588461Y-55804783D01*
X132482896Y-55881480D01*
X132403434Y-55939214D01*
X132403432Y-55939216D01*
X132403431Y-55939216D01*
X132241716Y-56100931D01*
X132241716Y-56100932D01*
X132241714Y-56100934D01*
X132183980Y-56180396D01*
X132107283Y-56285961D01*
X132003450Y-56489744D01*
X131932778Y-56707250D01*
X131932778Y-56707253D01*
X131897000Y-56933146D01*
X120254646Y-56933146D01*
X120170010Y-56924500D01*
X118969998Y-56924500D01*
X118969981Y-56924501D01*
X118867203Y-56935000D01*
X118867200Y-56935001D01*
X118700668Y-56990185D01*
X118700663Y-56990187D01*
X118551342Y-57082289D01*
X118427289Y-57206342D01*
X118335187Y-57355663D01*
X118335186Y-57355666D01*
X118280001Y-57522203D01*
X118280001Y-57522204D01*
X118280000Y-57522204D01*
X118269500Y-57624983D01*
X113850500Y-57624983D01*
X113850500Y-48494008D01*
X133249500Y-48494008D01*
X133249500Y-49844026D01*
X133249501Y-49844043D01*
X133260000Y-49946821D01*
X133260001Y-49946824D01*
X133315185Y-50113356D01*
X133315186Y-50113359D01*
X133407288Y-50262681D01*
X133531344Y-50386737D01*
X133680666Y-50478839D01*
X133847203Y-50534024D01*
X133949991Y-50544525D01*
X134750008Y-50544524D01*
X134750016Y-50544523D01*
X134750019Y-50544523D01*
X134806302Y-50538773D01*
X134852797Y-50534024D01*
X135019334Y-50478839D01*
X135168656Y-50386737D01*
X135292712Y-50262681D01*
X135384814Y-50113359D01*
X135439999Y-49946822D01*
X135450500Y-49844034D01*
X135450499Y-48494017D01*
X135439999Y-48391228D01*
X135384814Y-48224691D01*
X135292712Y-48075369D01*
X135168656Y-47951313D01*
X135019334Y-47859211D01*
X134852797Y-47804026D01*
X134852795Y-47804025D01*
X134750010Y-47793525D01*
X133949998Y-47793525D01*
X133949980Y-47793526D01*
X133847203Y-47804025D01*
X133847200Y-47804026D01*
X133680668Y-47859210D01*
X133680663Y-47859212D01*
X133531342Y-47951314D01*
X133407289Y-48075367D01*
X133315187Y-48224688D01*
X133315185Y-48224693D01*
X133294303Y-48287712D01*
X133260001Y-48391228D01*
X133260001Y-48391229D01*
X133260000Y-48391229D01*
X133249500Y-48494008D01*
X113850500Y-48494008D01*
X113850500Y-46464983D01*
X118269500Y-46464983D01*
X118269500Y-47665001D01*
X118269501Y-47665018D01*
X118280000Y-47767796D01*
X118280001Y-47767799D01*
X118310293Y-47859212D01*
X118335186Y-47934334D01*
X118427288Y-48083656D01*
X118551344Y-48207712D01*
X118700666Y-48299814D01*
X118867203Y-48354999D01*
X118969991Y-48365500D01*
X120170008Y-48365499D01*
X120272797Y-48354999D01*
X120439334Y-48299814D01*
X120588656Y-48207712D01*
X120712712Y-48083656D01*
X120804814Y-47934334D01*
X120859999Y-47767797D01*
X120870500Y-47665009D01*
X120870499Y-46544983D01*
X143669500Y-46544983D01*
X143669500Y-47745001D01*
X143669501Y-47745018D01*
X143680000Y-47847796D01*
X143680001Y-47847799D01*
X143708677Y-47934336D01*
X143735186Y-48014334D01*
X143827288Y-48163656D01*
X143951344Y-48287712D01*
X144100666Y-48379814D01*
X144267203Y-48434999D01*
X144369991Y-48445500D01*
X145570008Y-48445499D01*
X145672797Y-48434999D01*
X145839334Y-48379814D01*
X145988656Y-48287712D01*
X146112712Y-48163656D01*
X146204814Y-48014334D01*
X146259999Y-47847797D01*
X146270500Y-47745009D01*
X146270499Y-46544992D01*
X146259999Y-46442203D01*
X146204814Y-46275666D01*
X146112712Y-46126344D01*
X145988656Y-46002288D01*
X145839334Y-45910186D01*
X145672797Y-45855001D01*
X145672795Y-45855000D01*
X145570010Y-45844500D01*
X144369998Y-45844500D01*
X144369981Y-45844501D01*
X144267203Y-45855000D01*
X144267200Y-45855001D01*
X144100668Y-45910185D01*
X144100663Y-45910187D01*
X143951342Y-46002289D01*
X143827289Y-46126342D01*
X143735187Y-46275663D01*
X143735186Y-46275666D01*
X143680001Y-46442203D01*
X143680001Y-46442204D01*
X143680000Y-46442204D01*
X143669500Y-46544983D01*
X120870499Y-46544983D01*
X120870499Y-46464992D01*
X120859999Y-46362203D01*
X120804814Y-46195666D01*
X120712712Y-46046344D01*
X120588656Y-45922288D01*
X120479564Y-45855000D01*
X120439336Y-45830187D01*
X120439331Y-45830185D01*
X120437862Y-45829698D01*
X120272797Y-45775001D01*
X120272795Y-45775000D01*
X120170010Y-45764500D01*
X118969998Y-45764500D01*
X118969981Y-45764501D01*
X118867203Y-45775000D01*
X118867200Y-45775001D01*
X118700668Y-45830185D01*
X118700663Y-45830187D01*
X118551342Y-45922289D01*
X118427289Y-46046342D01*
X118335187Y-46195663D01*
X118335186Y-46195666D01*
X118280001Y-46362203D01*
X118280001Y-46362204D01*
X118280000Y-46362204D01*
X118269500Y-46464983D01*
X113850500Y-46464983D01*
X113850500Y-40269500D01*
X113870185Y-40202461D01*
X113922989Y-40156706D01*
X113974500Y-40145500D01*
X152725500Y-40145500D01*
X152792539Y-40165185D01*
G37*
%TD.AperFunction*%
%TA.AperFunction,Conductor*%
G36*
X121682813Y-128099194D02*
G01*
X121753757Y-128122246D01*
X121963713Y-128155500D01*
X121963714Y-128155500D01*
X122176286Y-128155500D01*
X122176287Y-128155500D01*
X122386243Y-128122246D01*
X122457183Y-128099195D01*
X122527023Y-128097201D01*
X122586856Y-128133281D01*
X122617684Y-128195982D01*
X122619500Y-128217127D01*
X122619500Y-154564902D01*
X122599815Y-154631941D01*
X122583181Y-154652583D01*
X121092181Y-156143583D01*
X121030858Y-156177068D01*
X120961166Y-156172084D01*
X120905233Y-156130212D01*
X120880816Y-156064748D01*
X120880500Y-156055902D01*
X120880500Y-155908713D01*
X120847246Y-155698757D01*
X120833506Y-155656473D01*
X120831512Y-155586635D01*
X120863755Y-155530478D01*
X121278506Y-155115728D01*
X121278511Y-155115724D01*
X121288714Y-155105520D01*
X121288716Y-155105520D01*
X121400520Y-154993716D01*
X121477750Y-154859949D01*
X121479577Y-154856785D01*
X121520501Y-154704057D01*
X121520501Y-154545943D01*
X121520501Y-154538348D01*
X121520500Y-154538330D01*
X121520500Y-128217127D01*
X121540185Y-128150088D01*
X121592989Y-128104333D01*
X121662147Y-128094389D01*
X121682813Y-128099194D01*
G37*
%TD.AperFunction*%
%TA.AperFunction,Conductor*%
G36*
X122562539Y-118015184D02*
G01*
X122608294Y-118067988D01*
X122619500Y-118119499D01*
X122619500Y-120312872D01*
X122599815Y-120379911D01*
X122547011Y-120425666D01*
X122477853Y-120435610D01*
X122457183Y-120430803D01*
X122386244Y-120407754D01*
X122386240Y-120407753D01*
X122194590Y-120377399D01*
X122176287Y-120374500D01*
X121963713Y-120374500D01*
X121945410Y-120377399D01*
X121753759Y-120407753D01*
X121753755Y-120407754D01*
X121682817Y-120430803D01*
X121612976Y-120432798D01*
X121553143Y-120396717D01*
X121522316Y-120334016D01*
X121520500Y-120312872D01*
X121520500Y-118119499D01*
X121540185Y-118052460D01*
X121592989Y-118006705D01*
X121644500Y-117995499D01*
X122495500Y-117995499D01*
X122562539Y-118015184D01*
G37*
%TD.AperFunction*%
%TD*%
D21*
%TO.C,C1*%
X119570000Y-47065000D03*
D22*
X122070000Y-47065000D03*
%TD*%
D21*
%TO.C,C4*%
X144970000Y-58225000D03*
D22*
X147470000Y-58225000D03*
%TD*%
D23*
%TO.C,J3*%
X129690000Y-126805000D03*
D24*
X129690000Y-129345000D03*
X129690000Y-131885000D03*
X129690000Y-134425000D03*
X129690000Y-136965000D03*
X129690000Y-139505000D03*
X129690000Y-142045000D03*
X129690000Y-144585000D03*
%TD*%
D25*
%TO.C,R1*%
X129540000Y-65845000D03*
X137160000Y-65845000D03*
%TD*%
D23*
%TO.C,U2B1*%
X144070000Y-73465000D03*
D24*
X144070000Y-76005000D03*
X144070000Y-78545000D03*
X144070000Y-81085000D03*
X144070000Y-83625000D03*
X144070000Y-86165000D03*
X144070000Y-88705000D03*
X144070000Y-91245000D03*
X144070000Y-93785000D03*
X144070000Y-96325000D03*
X144070000Y-98865000D03*
X144070000Y-101405000D03*
X144070000Y-103945000D03*
X144070000Y-106485000D03*
X144070000Y-109025000D03*
%TD*%
D23*
%TO.C,U2A1*%
X122070000Y-73465000D03*
D24*
X122070000Y-76005000D03*
X122070000Y-78545000D03*
X122070000Y-81085000D03*
X122070000Y-83625000D03*
X122070000Y-86165000D03*
X122070000Y-88705000D03*
X122070000Y-91245000D03*
X122070000Y-93785000D03*
X122070000Y-96325000D03*
X122070000Y-98865000D03*
X122070000Y-101405000D03*
X122070000Y-103945000D03*
X122070000Y-106485000D03*
X122070000Y-109025000D03*
%TD*%
D23*
%TO.C,J5*%
X144930000Y-126805000D03*
D24*
X147470000Y-126805000D03*
X144930000Y-129345000D03*
X147470000Y-129345000D03*
X144930000Y-131885000D03*
X147470000Y-131885000D03*
X144930000Y-134425000D03*
X147470000Y-134425000D03*
X144930000Y-136965000D03*
X147470000Y-136965000D03*
X144930000Y-139505000D03*
X147470000Y-139505000D03*
X144930000Y-142045000D03*
X147470000Y-142045000D03*
X144930000Y-144585000D03*
X147470000Y-144585000D03*
%TD*%
D21*
%TO.C,C3*%
X144970000Y-47145000D03*
D22*
X147470000Y-47145000D03*
%TD*%
D23*
%TO.C,J6*%
X147470000Y-119185000D03*
D24*
X144930000Y-119185000D03*
X142390000Y-119185000D03*
X139850000Y-119185000D03*
X137310000Y-119185000D03*
X134770000Y-119185000D03*
%TD*%
D21*
%TO.C,C5*%
X127150000Y-162365000D03*
D22*
X129650000Y-162365000D03*
%TD*%
D25*
%TO.C,R2*%
X141120000Y-65845000D03*
X148740000Y-65845000D03*
%TD*%
D23*
%TO.C,J2*%
X122070000Y-116645000D03*
D24*
X122070000Y-119185000D03*
X122070000Y-121725000D03*
X122070000Y-124265000D03*
X122070000Y-126805000D03*
X122070000Y-129345000D03*
%TD*%
D26*
%TO.C,U1*%
X130810000Y-57095000D03*
D27*
X133350000Y-57095000D03*
X135890000Y-57095000D03*
%TD*%
D23*
%TO.C,J4*%
X119530000Y-150935000D03*
D24*
X119530000Y-153475000D03*
X119530000Y-156015000D03*
X119530000Y-158555000D03*
X119530000Y-161095000D03*
X119530000Y-163635000D03*
%TD*%
D21*
%TO.C,C2*%
X119570000Y-58225000D03*
D22*
X122070000Y-58225000D03*
%TD*%
D28*
%TO.C,J1*%
X134350000Y-49169025D03*
D29*
X132350000Y-49169025D03*
%TD*%
%TO.C,C1*%
D30*
X123570000Y-47065000D02*
G75*
G02*
X118070000Y-47065000I-2750000J0D01*
G01*
X118070000Y-47065000D02*
G75*
G02*
X123570000Y-47065000I2750000J0D01*
G01*
%TO.C,C4*%
X148970000Y-58225000D02*
G75*
G02*
X143470000Y-58225000I-2750000J0D01*
G01*
X143470000Y-58225000D02*
G75*
G02*
X148970000Y-58225000I2750000J0D01*
G01*
%TO.C,J3*%
X127920000Y-125035000D02*
X131460000Y-125035000D01*
X131460000Y-146355000D01*
X127920000Y-146355000D01*
X127920000Y-125035000D01*
%TO.C,R1*%
X128590000Y-64795000D02*
X138110000Y-64795000D01*
X138110000Y-66895000D01*
X128590000Y-66895000D01*
X128590000Y-64795000D01*
%TO.C,U2B1*%
X142300000Y-71685000D02*
X145840000Y-71685000D01*
X145840000Y-110805000D01*
X142300000Y-110805000D01*
X142300000Y-71685000D01*
%TO.C,U2A1*%
X120300000Y-71685000D02*
X123840000Y-71685000D01*
X123840000Y-110805000D01*
X120300000Y-110805000D01*
X120300000Y-71685000D01*
%TO.C,J5*%
X143160000Y-125035000D02*
X149250000Y-125035000D01*
X149250000Y-146355000D01*
X143160000Y-146355000D01*
X143160000Y-125035000D01*
%TO.C,C3*%
X148970000Y-47145000D02*
G75*
G02*
X143470000Y-47145000I-2750000J0D01*
G01*
X143470000Y-47145000D02*
G75*
G02*
X148970000Y-47145000I2750000J0D01*
G01*
%TO.C,J6*%
X133000000Y-117415000D02*
X149240000Y-117415000D01*
X149240000Y-120955000D01*
X133000000Y-120955000D01*
X133000000Y-117415000D01*
%TO.C,C5*%
X131150000Y-162365000D02*
G75*
G02*
X125650000Y-162365000I-2750000J0D01*
G01*
X125650000Y-162365000D02*
G75*
G02*
X131150000Y-162365000I2750000J0D01*
G01*
%TO.C,R2*%
X140170000Y-64795000D02*
X149690000Y-64795000D01*
X149690000Y-66895000D01*
X140170000Y-66895000D01*
X140170000Y-64795000D01*
%TO.C,J2*%
X120300000Y-114875000D02*
X123840000Y-114875000D01*
X123840000Y-131115000D01*
X120300000Y-131115000D01*
X120300000Y-114875000D01*
%TO.C,U1*%
X128100000Y-53695000D02*
X138600000Y-53695000D01*
X138600000Y-58595000D01*
X128100000Y-58595000D01*
X128100000Y-53695000D01*
%TO.C,J4*%
X117760000Y-149165000D02*
X121300000Y-149165000D01*
X121300000Y-165405000D01*
X117760000Y-165405000D01*
X117760000Y-149165000D01*
%TO.C,C2*%
X123570000Y-58225000D02*
G75*
G02*
X118070000Y-58225000I-2750000J0D01*
G01*
X118070000Y-58225000D02*
G75*
G02*
X123570000Y-58225000I2750000J0D01*
G01*
%TO.C,J1*%
X129900000Y-42419025D02*
X136800000Y-42419025D01*
X136800000Y-51019025D01*
X129900000Y-51019025D01*
X129900000Y-42419025D01*
%TD*%
D31*
X113350000Y-39645000D02*
X153350000Y-39645000D01*
X153350000Y-169645000D01*
X113350000Y-169645000D01*
X113350000Y-39645000D01*
M02*
